<svg width="215" height="60" viewBox="0 0 215 60" fill="none" xmlns="http://www.w3.org/2000/svg">
<rect x="2.5" y="2.5" width="210" height="55" rx="22.5" fill="#E0E0E0" stroke="url(#paint0_linear)" stroke-width="5"/>
<path d="M64.6683 29.624C64.6683 27.992 65.0443 26.528 65.7963 25.232C66.5643 23.936 67.5963 22.928 68.8923 22.208C70.2043 21.472 71.6363 21.104 73.1883 21.104C74.9643 21.104 76.5403 21.544 77.9163 22.424C79.3083 23.288 80.3163 24.52 80.9403 26.12H77.6523C77.2203 25.24 76.6203 24.584 75.8523 24.152C75.0843 23.72 74.1963 23.504 73.1883 23.504C72.0843 23.504 71.1003 23.752 70.2363 24.248C69.3723 24.744 68.6923 25.456 68.1963 26.384C67.7163 27.312 67.4763 28.392 67.4763 29.624C67.4763 30.856 67.7163 31.936 68.1963 32.864C68.6923 33.792 69.3723 34.512 70.2363 35.024C71.1003 35.52 72.0843 35.768 73.1883 35.768C74.1963 35.768 75.0843 35.552 75.8523 35.12C76.6203 34.688 77.2203 34.032 77.6523 33.152H80.9403C80.3163 34.752 79.3083 35.984 77.9163 36.848C76.5403 37.712 74.9643 38.144 73.1883 38.144C71.6203 38.144 70.1883 37.784 68.8923 37.064C67.5963 36.328 66.5643 35.312 65.7963 34.016C65.0443 32.72 64.6683 31.256 64.6683 29.624ZM83.2308 31.328C83.2308 30 83.5028 28.824 84.0468 27.8C84.6068 26.776 85.3588 25.984 86.3028 25.424C87.2628 24.848 88.3188 24.56 89.4708 24.56C90.5108 24.56 91.4148 24.768 92.1828 25.184C92.9668 25.584 93.5908 26.088 94.0548 26.696V24.776H96.8148V38H94.0548V36.032C93.5908 36.656 92.9588 37.176 92.1588 37.592C91.3588 38.008 90.4468 38.216 89.4228 38.216C88.2868 38.216 87.2468 37.928 86.3028 37.352C85.3588 36.76 84.6068 35.944 84.0468 34.904C83.5028 33.848 83.2308 32.656 83.2308 31.328ZM94.0548 31.376C94.0548 30.464 93.8628 29.672 93.4788 29C93.1108 28.328 92.6228 27.816 92.0148 27.464C91.4068 27.112 90.7508 26.936 90.0468 26.936C89.3428 26.936 88.6868 27.112 88.0788 27.464C87.4708 27.8 86.9748 28.304 86.5908 28.976C86.2228 29.632 86.0388 30.416 86.0388 31.328C86.0388 32.24 86.2228 33.04 86.5908 33.728C86.9748 34.416 87.4708 34.944 88.0788 35.312C88.7028 35.664 89.3588 35.84 90.0468 35.84C90.7508 35.84 91.4068 35.664 92.0148 35.312C92.6228 34.96 93.1108 34.448 93.4788 33.776C93.8628 33.088 94.0548 32.288 94.0548 31.376ZM107.08 24.56C108.12 24.56 109.048 24.776 109.864 25.208C110.696 25.64 111.344 26.28 111.808 27.128C112.272 27.976 112.504 29 112.504 30.2V38H109.792V30.608C109.792 29.424 109.496 28.52 108.904 27.896C108.312 27.256 107.504 26.936 106.48 26.936C105.456 26.936 104.64 27.256 104.032 27.896C103.44 28.52 103.144 29.424 103.144 30.608V38H100.408V24.776H103.144V26.288C103.592 25.744 104.16 25.32 104.848 25.016C105.552 24.712 106.296 24.56 107.08 24.56ZM115.082 31.376C115.082 30.016 115.354 28.824 115.898 27.8C116.458 26.76 117.226 25.96 118.202 25.4C119.178 24.84 120.298 24.56 121.562 24.56C123.162 24.56 124.482 24.944 125.522 25.712C126.578 26.464 127.29 27.544 127.658 28.952H124.706C124.466 28.296 124.082 27.784 123.554 27.416C123.026 27.048 122.362 26.864 121.562 26.864C120.442 26.864 119.546 27.264 118.874 28.064C118.218 28.848 117.89 29.952 117.89 31.376C117.89 32.8 118.218 33.912 118.874 34.712C119.546 35.512 120.442 35.912 121.562 35.912C123.146 35.912 124.194 35.216 124.706 33.824H127.658C127.274 35.168 126.554 36.24 125.498 37.04C124.442 37.824 123.13 38.216 121.562 38.216C120.298 38.216 119.178 37.936 118.202 37.376C117.226 36.8 116.458 36 115.898 34.976C115.354 33.936 115.082 32.736 115.082 31.376ZM142.505 31.064C142.505 31.56 142.473 32.008 142.409 32.408H132.305C132.385 33.464 132.777 34.312 133.481 34.952C134.185 35.592 135.049 35.912 136.073 35.912C137.545 35.912 138.585 35.296 139.193 34.064H142.145C141.745 35.28 141.017 36.28 139.961 37.064C138.921 37.832 137.625 38.216 136.073 38.216C134.809 38.216 133.673 37.936 132.665 37.376C131.673 36.8 130.889 36 130.313 34.976C129.753 33.936 129.473 32.736 129.473 31.376C129.473 30.016 129.745 28.824 130.289 27.8C130.849 26.76 131.625 25.96 132.617 25.4C133.625 24.84 134.777 24.56 136.073 24.56C137.321 24.56 138.433 24.832 139.409 25.376C140.385 25.92 141.145 26.688 141.689 27.68C142.233 28.656 142.505 29.784 142.505 31.064ZM139.649 30.2C139.633 29.192 139.273 28.384 138.569 27.776C137.865 27.168 136.993 26.864 135.953 26.864C135.009 26.864 134.201 27.168 133.529 27.776C132.857 28.368 132.457 29.176 132.329 30.2H139.649ZM147.933 20.24V38H145.197V20.24H147.933Z" fill="black" fill-opacity="0.75"/>
<defs>
<linearGradient id="paint0_linear" x1="-21.5" y1="9.33917e-06" x2="193.253" y2="60.8712" gradientUnits="userSpaceOnUse">
<stop stop-color="#6D58C6"/>
<stop offset="1" stop-color="#F977A1"/>
</linearGradient>
</defs>
</svg>
