<svg width="75" height="105" viewBox="0 0 75 105" fill="none" xmlns="http://www.w3.org/2000/svg">
<path d="M37.5 0C16.7913 0 0 16.7913 0 37.5C0 58.2087 16.7913 75 37.5 75C58.2087 75 75 58.2087 75 37.5C75 16.7913 58.2087 0 37.5 0ZM37.5 68.6384C20.3069 68.6384 6.36161 54.6931 6.36161 37.5C6.36161 20.3069 20.3069 6.36161 37.5 6.36161C54.6931 6.36161 68.6384 20.3069 68.6384 37.5C68.6384 54.6931 54.6931 68.6384 37.5 68.6384Z" fill="url(#paint0_linear)"/>
<path d="M52.2018 33.9489H40.0569V21.1293C40.0569 20.7582 39.7693 20.4546 39.4177 20.4546H35.5825C35.2309 20.4546 34.9433 20.7582 34.9433 21.1293V33.9489H22.7984C22.4468 33.9489 22.1592 34.2525 22.1592 34.6236V38.6719C22.1592 39.043 22.4468 39.3466 22.7984 39.3466H34.9433V52.1662C34.9433 52.5373 35.2309 52.841 35.5825 52.841H39.4177C39.7693 52.841 40.0569 52.5373 40.0569 52.1662V39.3466H52.2018C52.5534 39.3466 52.841 39.043 52.841 38.6719V34.6236C52.841 34.2525 52.5534 33.9489 52.2018 33.9489Z" fill="url(#paint1_linear)"/>
<path opacity="0.75" d="M5.63 92.7C5.63 91.464 5.906 90.36 6.458 89.388C7.022 88.404 7.784 87.642 8.744 87.102C9.716 86.55 10.802 86.274 12.002 86.274C13.406 86.274 14.636 86.634 15.692 87.354C16.748 88.074 17.486 89.07 17.906 90.342H15.008C14.72 89.742 14.312 89.292 13.784 88.992C13.268 88.692 12.668 88.542 11.984 88.542C11.252 88.542 10.598 88.716 10.022 89.064C9.458 89.4 9.014 89.88 8.69 90.504C8.378 91.128 8.222 91.86 8.222 92.7C8.222 93.528 8.378 94.26 8.69 94.896C9.014 95.52 9.458 96.006 10.022 96.354C10.598 96.69 11.252 96.858 11.984 96.858C12.668 96.858 13.268 96.708 13.784 96.408C14.312 96.096 14.72 95.64 15.008 95.04H17.906C17.486 96.324 16.748 97.326 15.692 98.046C14.648 98.754 13.418 99.108 12.002 99.108C10.802 99.108 9.716 98.838 8.744 98.298C7.784 97.746 7.022 96.984 6.458 96.012C5.906 95.04 5.63 93.936 5.63 92.7ZM22.5784 90.576C22.9024 90.048 23.3224 89.634 23.8384 89.334C24.3664 89.034 24.9664 88.884 25.6384 88.884V91.53H24.9724C24.1804 91.53 23.5804 91.716 23.1724 92.088C22.7764 92.46 22.5784 93.108 22.5784 94.032V99H20.0584V89.028H22.5784V90.576ZM36.6058 93.798C36.6058 94.158 36.5818 94.482 36.5338 94.77H29.2438C29.3038 95.49 29.5558 96.054 29.9998 96.462C30.4438 96.87 30.9898 97.074 31.6378 97.074C32.5738 97.074 33.2398 96.672 33.6358 95.868H36.3538C36.0658 96.828 35.5138 97.62 34.6978 98.244C33.8818 98.856 32.8798 99.162 31.6918 99.162C30.7318 99.162 29.8678 98.952 29.0998 98.532C28.3438 98.1 27.7498 97.494 27.3178 96.714C26.8978 95.934 26.6877 95.034 26.6877 94.014C26.6877 92.982 26.8978 92.076 27.3178 91.296C27.7378 90.516 28.3258 89.916 29.0818 89.496C29.8378 89.076 30.7078 88.866 31.6918 88.866C32.6398 88.866 33.4858 89.07 34.2298 89.478C34.9858 89.886 35.5678 90.468 35.9758 91.224C36.3958 91.968 36.6058 92.826 36.6058 93.798ZM33.9958 93.078C33.9838 92.43 33.7498 91.914 33.2938 91.53C32.8378 91.134 32.2798 90.936 31.6198 90.936C30.9958 90.936 30.4678 91.128 30.0358 91.512C29.6158 91.884 29.3578 92.406 29.2618 93.078H33.9958ZM37.7971 93.978C37.7971 92.97 37.9951 92.076 38.3911 91.296C38.7991 90.516 39.3451 89.916 40.0291 89.496C40.7251 89.076 41.4991 88.866 42.3511 88.866C43.0951 88.866 43.7431 89.016 44.2951 89.316C44.8591 89.616 45.3091 89.994 45.6451 90.45V89.028H48.1831V99H45.6451V97.542C45.3211 98.01 44.8711 98.4 44.2951 98.712C43.7311 99.012 43.0771 99.162 42.3331 99.162C41.4931 99.162 40.7251 98.946 40.0291 98.514C39.3451 98.082 38.7991 97.476 38.3911 96.696C37.9951 95.904 37.7971 94.998 37.7971 93.978ZM45.6451 94.014C45.6451 93.402 45.5251 92.88 45.2851 92.448C45.0451 92.004 44.7211 91.668 44.3131 91.44C43.9051 91.2 43.4671 91.08 42.9991 91.08C42.5311 91.08 42.0991 91.194 41.7031 91.422C41.3071 91.65 40.9831 91.986 40.7311 92.43C40.4911 92.862 40.3711 93.378 40.3711 93.978C40.3711 94.578 40.4911 95.106 40.7311 95.562C40.9831 96.006 41.3071 96.348 41.7031 96.588C42.1111 96.828 42.5431 96.948 42.9991 96.948C43.4671 96.948 43.9051 96.834 44.3131 96.606C44.7211 96.366 45.0451 96.03 45.2851 95.598C45.5251 95.154 45.6451 94.626 45.6451 94.014ZM53.5783 91.098V95.922C53.5783 96.258 53.6563 96.504 53.8123 96.66C53.9803 96.804 54.2563 96.876 54.6403 96.876H55.8103V99H54.2263C52.1023 99 51.0403 97.968 51.0403 95.904V91.098H49.8523V89.028H51.0403V86.562H53.5783V89.028H55.8103V91.098H53.5783ZM66.8929 93.798C66.8929 94.158 66.8689 94.482 66.8209 94.77H59.5309C59.5909 95.49 59.8429 96.054 60.2869 96.462C60.7309 96.87 61.2769 97.074 61.9249 97.074C62.8609 97.074 63.5269 96.672 63.9229 95.868H66.6409C66.3529 96.828 65.8009 97.62 64.9849 98.244C64.1689 98.856 63.1669 99.162 61.9789 99.162C61.0189 99.162 60.1549 98.952 59.3869 98.532C58.6309 98.1 58.0369 97.494 57.6049 96.714C57.1849 95.934 56.9749 95.034 56.9749 94.014C56.9749 92.982 57.1849 92.076 57.6049 91.296C58.0249 90.516 58.6129 89.916 59.3689 89.496C60.1249 89.076 60.9949 88.866 61.9789 88.866C62.9269 88.866 63.7729 89.07 64.5169 89.478C65.2729 89.886 65.8549 90.468 66.2629 91.224C66.6829 91.968 66.8929 92.826 66.8929 93.798ZM64.2829 93.078C64.2709 92.43 64.0369 91.914 63.5809 91.53C63.1249 91.134 62.5669 90.936 61.9069 90.936C61.2829 90.936 60.7549 91.128 60.3229 91.512C59.9029 91.884 59.6449 92.406 59.5489 93.078H64.2829Z" fill="url(#paint2_linear)"/>
<defs>
<linearGradient id="paint0_linear" x1="-7.5" y1="1.1674e-05" x2="72.9294" y2="6.3621" gradientUnits="userSpaceOnUse">
<stop stop-color="#6D58C6"/>
<stop offset="1" stop-color="#F977A1"/>
</linearGradient>
<linearGradient id="paint1_linear" x1="19.091" y1="20.4546" x2="52.0149" y2="22.9219" gradientUnits="userSpaceOnUse">
<stop stop-color="#6D58C6"/>
<stop offset="1" stop-color="#F977A1"/>
</linearGradient>
<linearGradient id="paint2_linear" x1="-1.6" y1="79" x2="66.8604" y2="92.7466" gradientUnits="userSpaceOnUse">
<stop stop-color="#6D58C6"/>
<stop offset="1" stop-color="#F977A1"/>
</linearGradient>
</defs>
</svg>
