<svg width="214" height="60" viewBox="0 0 214 60" fill="none" xmlns="http://www.w3.org/2000/svg">
<rect width="214" height="60" rx="25" fill="url(#paint0_linear)"/>
<path d="M57.7801 23.528V28.424H63.5401V30.656H57.7801V35.768H64.2601V38H55.0441V21.296H64.2601V23.528H57.7801ZM66.7181 31.328C66.7181 30 66.9901 28.824 67.5341 27.8C68.0941 26.776 68.8461 25.984 69.7901 25.424C70.7501 24.848 71.8141 24.56 72.9821 24.56C73.8461 24.56 74.6941 24.752 75.5261 25.136C76.3741 25.504 77.0461 26 77.5421 26.624V20.24H80.3021V38H77.5421V36.008C77.0941 36.648 76.4701 37.176 75.6701 37.592C74.8861 38.008 73.9821 38.216 72.9581 38.216C71.8061 38.216 70.7501 37.928 69.7901 37.352C68.8461 36.76 68.0941 35.944 67.5341 34.904C66.9901 33.848 66.7181 32.656 66.7181 31.328ZM77.5421 31.376C77.5421 30.464 77.3501 29.672 76.9661 29C76.5981 28.328 76.1101 27.816 75.5021 27.464C74.8941 27.112 74.2381 26.936 73.5341 26.936C72.8301 26.936 72.1741 27.112 71.5661 27.464C70.9581 27.8 70.4621 28.304 70.0781 28.976C69.7101 29.632 69.5261 30.416 69.5261 31.328C69.5261 32.24 69.7101 33.04 70.0781 33.728C70.4621 34.416 70.9581 34.944 71.5661 35.312C72.1901 35.664 72.8461 35.84 73.5341 35.84C74.2381 35.84 74.8941 35.664 75.5021 35.312C76.1101 34.96 76.5981 34.448 76.9661 33.776C77.3501 33.088 77.5421 32.288 77.5421 31.376ZM85.2877 23.024C84.7917 23.024 84.3757 22.856 84.0397 22.52C83.7037 22.184 83.5357 21.768 83.5357 21.272C83.5357 20.776 83.7037 20.36 84.0397 20.024C84.3757 19.688 84.7917 19.52 85.2877 19.52C85.7677 19.52 86.1757 19.688 86.5117 20.024C86.8477 20.36 87.0157 20.776 87.0157 21.272C87.0157 21.768 86.8477 22.184 86.5117 22.52C86.1757 22.856 85.7677 23.024 85.2877 23.024ZM86.6317 24.776V38H83.8957V24.776H86.6317ZM93.4158 27.008V34.328C93.4158 34.824 93.5278 35.184 93.7518 35.408C93.9918 35.616 94.3918 35.72 94.9518 35.72H96.6318V38H94.4718C93.2398 38 92.2958 37.712 91.6398 37.136C90.9838 36.56 90.6558 35.624 90.6558 34.328V27.008H89.0958V24.776H90.6558V21.488H93.4158V24.776H96.6318V27.008H93.4158ZM108.124 26.72C108.588 26.112 109.22 25.6 110.02 25.184C110.82 24.768 111.724 24.56 112.732 24.56C113.884 24.56 114.932 24.848 115.876 25.424C116.836 25.984 117.588 26.776 118.132 27.8C118.676 28.824 118.948 30 118.948 31.328C118.948 32.656 118.676 33.848 118.132 34.904C117.588 35.944 116.836 36.76 115.876 37.352C114.932 37.928 113.884 38.216 112.732 38.216C111.724 38.216 110.828 38.016 110.044 37.616C109.26 37.2 108.62 36.688 108.124 36.08V44.288H105.388V24.776H108.124V26.72ZM116.164 31.328C116.164 30.416 115.972 29.632 115.588 28.976C115.22 28.304 114.724 27.8 114.1 27.464C113.492 27.112 112.836 26.936 112.132 26.936C111.444 26.936 110.788 27.112 110.164 27.464C109.556 27.816 109.06 28.328 108.676 29C108.308 29.672 108.124 30.464 108.124 31.376C108.124 32.288 108.308 33.088 108.676 33.776C109.06 34.448 109.556 34.96 110.164 35.312C110.788 35.664 111.444 35.84 112.132 35.84C112.836 35.84 113.492 35.664 114.1 35.312C114.724 34.944 115.22 34.416 115.588 33.728C115.972 33.04 116.164 32.24 116.164 31.328ZM127.39 38.216C126.142 38.216 125.014 37.936 124.006 37.376C122.998 36.8 122.206 36 121.63 34.976C121.054 33.936 120.766 32.736 120.766 31.376C120.766 30.032 121.062 28.84 121.654 27.8C122.246 26.76 123.054 25.96 124.078 25.4C125.102 24.84 126.246 24.56 127.51 24.56C128.774 24.56 129.918 24.84 130.942 25.4C131.966 25.96 132.774 26.76 133.366 27.8C133.958 28.84 134.254 30.032 134.254 31.376C134.254 32.72 133.95 33.912 133.342 34.952C132.734 35.992 131.902 36.8 130.846 37.376C129.806 37.936 128.654 38.216 127.39 38.216ZM127.39 35.84C128.094 35.84 128.75 35.672 129.358 35.336C129.982 35 130.486 34.496 130.87 33.824C131.254 33.152 131.446 32.336 131.446 31.376C131.446 30.416 131.262 29.608 130.894 28.952C130.526 28.28 130.038 27.776 129.43 27.44C128.822 27.104 128.166 26.936 127.462 26.936C126.758 26.936 126.102 27.104 125.494 27.44C124.902 27.776 124.43 28.28 124.078 28.952C123.726 29.608 123.55 30.416 123.55 31.376C123.55 32.8 123.91 33.904 124.63 34.688C125.366 35.456 126.286 35.84 127.39 35.84ZM141.758 38.216C140.718 38.216 139.782 38.032 138.95 37.664C138.134 37.28 137.486 36.768 137.006 36.128C136.526 35.472 136.27 34.744 136.238 33.944H139.07C139.118 34.504 139.382 34.976 139.862 35.36C140.358 35.728 140.974 35.912 141.71 35.912C142.478 35.912 143.07 35.768 143.486 35.48C143.918 35.176 144.134 34.792 144.134 34.328C144.134 33.832 143.894 33.464 143.414 33.224C142.95 32.984 142.206 32.72 141.182 32.432C140.19 32.16 139.382 31.896 138.758 31.64C138.134 31.384 137.59 30.992 137.126 30.464C136.678 29.936 136.454 29.24 136.454 28.376C136.454 27.672 136.662 27.032 137.078 26.456C137.494 25.864 138.086 25.4 138.854 25.064C139.638 24.728 140.534 24.56 141.542 24.56C143.046 24.56 144.254 24.944 145.166 25.712C146.094 26.464 146.59 27.496 146.654 28.808H143.918C143.87 28.216 143.63 27.744 143.198 27.392C142.766 27.04 142.182 26.864 141.446 26.864C140.726 26.864 140.174 27 139.79 27.272C139.406 27.544 139.214 27.904 139.214 28.352C139.214 28.704 139.342 29 139.598 29.24C139.854 29.48 140.166 29.672 140.534 29.816C140.902 29.944 141.446 30.112 142.166 30.32C143.126 30.576 143.91 30.84 144.518 31.112C145.142 31.368 145.678 31.752 146.126 32.264C146.574 32.776 146.806 33.456 146.822 34.304C146.822 35.056 146.614 35.728 146.198 36.32C145.782 36.912 145.19 37.376 144.422 37.712C143.67 38.048 142.782 38.216 141.758 38.216ZM152.971 27.008V34.328C152.971 34.824 153.083 35.184 153.307 35.408C153.547 35.616 153.947 35.72 154.507 35.72H156.187V38H154.027C152.795 38 151.851 37.712 151.195 37.136C150.539 36.56 150.211 35.624 150.211 34.328V27.008H148.651V24.776H150.211V21.488H152.971V24.776H156.187V27.008H152.971Z" fill="white"/>
<defs>
<linearGradient id="paint0_linear" x1="-21.4" y1="9.33917e-06" x2="192.502" y2="60.3479" gradientUnits="userSpaceOnUse">
<stop stop-color="#6D58C6"/>
<stop offset="1" stop-color="#F977A1"/>
</linearGradient>
</defs>
</svg>
