<svg width="290" height="300" fill="none" xmlns="http://www.w3.org/2000/svg"><rect width="290" height="300" rx="50" fill="url(#paint0_linear)"/><path d="M72.305 193.42H61.361L59.345 199H55.89l9.072-24.948h3.78L77.777 199h-3.456l-2.016-5.58zm-.936-2.664l-4.536-12.672-4.536 12.672h9.072zm9.138-1.692c0-2.016.408-3.78 1.224-5.292.816-1.536 1.932-2.724 3.348-3.564 1.44-.84 3.048-1.26 4.824-1.26 1.536 0 2.964.36 4.284 1.08 1.32.696 2.328 1.62 3.024 2.772v-10.44h3.312V199h-3.312v-3.708c-.648 1.176-1.608 2.148-2.88 2.916-1.272.744-2.76 1.116-4.464 1.116-1.752 0-3.348-.432-4.788-1.296-1.416-.864-2.532-2.076-3.348-3.636-.816-1.56-1.224-3.336-1.224-5.328zm16.704.036c0-1.488-.3-2.784-.9-3.888-.6-1.104-1.416-1.944-2.448-2.52-1.008-.6-2.124-.9-3.348-.9-1.224 0-2.34.288-3.348.864-1.008.576-1.812 1.416-2.412 2.52-.6 1.104-.9 2.4-.9 3.888 0 1.512.3 2.832.9 3.96.6 1.104 1.404 1.956 2.412 2.556 1.008.576 2.124.864 3.348.864 1.224 0 2.34-.288 3.348-.864 1.032-.6 1.848-1.452 2.448-2.556.6-1.128.9-2.436.9-3.924zm7.624-.036c0-2.016.408-3.78 1.224-5.292.816-1.536 1.932-2.724 3.348-3.564 1.44-.84 3.048-1.26 4.824-1.26 1.536 0 2.964.36 4.284 1.08 1.32.696 2.328 1.62 3.024 2.772v-10.44h3.312V199h-3.312v-3.708c-.648 1.176-1.608 2.148-2.88 2.916-1.272.744-2.76 1.116-4.464 1.116-1.752 0-3.348-.432-4.788-1.296-1.416-.864-2.532-2.076-3.348-3.636-.816-1.56-1.224-3.336-1.224-5.328zm16.704.036c0-1.488-.3-2.784-.9-3.888-.6-1.104-1.416-1.944-2.448-2.52-1.008-.6-2.124-.9-3.348-.9-1.224 0-2.34.288-3.348.864-1.008.576-1.812 1.416-2.412 2.52-.6 1.104-.9 2.4-.9 3.888 0 1.512.3 2.832.9 3.96.6 1.104 1.404 1.956 2.412 2.556 1.008.576 2.124.864 3.348.864 1.224 0 2.34-.288 3.348-.864 1.032-.6 1.848-1.452 2.448-2.556.6-1.128.9-2.436.9-3.924zm21.722-6.192c.648-1.128 1.608-2.064 2.88-2.808 1.296-.768 2.796-1.152 4.5-1.152 1.752 0 3.336.42 4.752 1.26 1.44.84 2.568 2.028 3.384 3.564.816 1.512 1.224 3.276 1.224 5.292 0 1.992-.408 3.768-1.224 5.328-.816 1.56-1.944 2.772-3.384 3.636-1.416.864-3 1.296-4.752 1.296-1.68 0-3.168-.372-4.464-1.116-1.272-.768-2.244-1.716-2.916-2.844v12.996h-3.276v-29.088h3.276v3.636zm13.392 6.156c0-1.488-.3-2.784-.9-3.888-.6-1.104-1.416-1.944-2.448-2.52-1.008-.576-2.124-.864-3.348-.864-1.2 0-2.316.3-3.348.9-1.008.576-1.824 1.428-2.448 2.556-.6 1.104-.9 2.388-.9 3.852 0 1.488.3 2.796.9 3.924.624 1.104 1.44 1.956 2.448 2.556a6.758 6.758 0 003.348.864c1.224 0 2.34-.288 3.348-.864 1.032-.6 1.848-1.452 2.448-2.556.6-1.128.9-2.448.9-3.96zm16.264 10.26c-1.848 0-3.528-.42-5.04-1.26-1.488-.84-2.664-2.028-3.528-3.564-.84-1.56-1.26-3.36-1.26-5.4 0-2.016.432-3.792 1.296-5.328.888-1.56 2.088-2.748 3.6-3.564 1.512-.84 3.204-1.26 5.076-1.26 1.872 0 3.564.42 5.076 1.26 1.512.816 2.7 1.992 3.564 3.528.888 1.536 1.332 3.324 1.332 5.364s-.456 3.84-1.368 5.4a9.268 9.268 0 01-3.636 3.564c-1.536.84-3.24 1.26-5.112 1.26zm0-2.88c1.176 0 2.28-.276 3.312-.828 1.032-.552 1.86-1.38 2.484-2.484.648-1.104.972-2.448.972-4.032s-.312-2.928-.936-4.032c-.624-1.104-1.44-1.92-2.448-2.448a6.711 6.711 0 00-3.276-.828c-1.2 0-2.304.276-3.312.828-.984.528-1.776 1.344-2.376 2.448-.6 1.104-.9 2.448-.9 4.032 0 1.608.288 2.964.864 4.068.6 1.104 1.392 1.932 2.376 2.484.984.528 2.064.792 3.24.792zm21.407 2.88c-1.512 0-2.868-.252-4.068-.756-1.2-.528-2.148-1.248-2.844-2.16-.696-.936-1.08-2.004-1.152-3.204h3.384c.096.984.552 1.788 1.368 2.412.84.624 1.932.936 3.276.936 1.248 0 2.232-.276 2.952-.828.72-.552 1.08-1.248 1.08-2.088 0-.864-.384-1.5-1.152-1.908-.768-.432-1.956-.852-3.564-1.26-1.464-.384-2.664-.768-3.6-1.152a6.836 6.836 0 01-2.376-1.764c-.648-.792-.972-1.824-.972-3.096 0-1.008.3-1.932.9-2.772.6-.84 1.452-1.5 2.556-1.98 1.104-.504 2.364-.756 3.78-.756 2.184 0 3.948.552 5.292 1.656 1.344 1.104 2.064 2.616 2.16 4.536h-3.276c-.072-1.032-.492-1.86-1.26-2.484-.744-.624-1.752-.936-3.024-.936-1.176 0-2.112.252-2.808.756-.696.504-1.044 1.164-1.044 1.98 0 .648.204 1.188.612 1.62.432.408.96.744 1.584 1.008.648.24 1.536.516 2.664.828 1.416.384 2.568.768 3.456 1.152a5.73 5.73 0 012.268 1.656c.648.744.984 1.716 1.008 2.916 0 1.08-.3 2.052-.9 2.916-.6.864-1.452 1.548-2.556 2.052-1.08.48-2.328.72-3.744.72zm15.821-17.352V193.6c0 .96.204 1.644.612 2.052.408.384 1.116.576 2.124.576h2.412V199h-2.952c-1.824 0-3.192-.42-4.104-1.26-.912-.84-1.368-2.22-1.368-4.14v-11.628h-2.556v-2.7h2.556v-4.968h3.276v4.968h5.148v2.7h-5.148zm16.101 17.352c-1.512 0-2.868-.252-4.068-.756-1.2-.528-2.148-1.248-2.844-2.16-.696-.936-1.08-2.004-1.152-3.204h3.384c.096.984.552 1.788 1.368 2.412.84.624 1.932.936 3.276.936 1.248 0 2.232-.276 2.952-.828.72-.552 1.08-1.248 1.08-2.088 0-.864-.384-1.5-1.152-1.908-.768-.432-1.956-.852-3.564-1.26-1.464-.384-2.664-.768-3.6-1.152a6.836 6.836 0 01-2.376-1.764c-.648-.792-.972-1.824-.972-3.096 0-1.008.3-1.932.9-2.772.6-.84 1.452-1.5 2.556-1.98 1.104-.504 2.364-.756 3.78-.756 2.184 0 3.948.552 5.292 1.656 1.344 1.104 2.064 2.616 2.16 4.536h-3.276c-.072-1.032-.492-1.86-1.26-2.484-.744-.624-1.752-.936-3.024-.936-1.176 0-2.112.252-2.808.756-.696.504-1.044 1.164-1.044 1.98 0 .648.204 1.188.612 1.62.432.408.96.744 1.584 1.008.648.24 1.536.516 2.664.828 1.416.384 2.568.768 3.456 1.152a5.73 5.73 0 012.268 1.656c.648.744.984 1.716 1.008 2.916 0 1.08-.3 2.052-.9 2.916-.6.864-1.452 1.548-2.556 2.052-1.08.48-2.328.72-3.744.72zm-179.524 43.74c0-2.016.408-3.78 1.224-5.292.816-1.536 1.932-2.724 3.348-3.564 1.44-.84 3.036-1.26 4.788-1.26 1.728 0 3.228.372 4.5 1.116 1.272.744 2.22 1.68 2.844 2.808v-3.6h3.312V253h-3.312v-3.672c-.648 1.152-1.62 2.112-2.916 2.88-1.272.744-2.76 1.116-4.464 1.116-1.752 0-3.336-.432-4.752-1.296-1.416-.864-2.532-2.076-3.348-3.636-.816-1.56-1.224-3.336-1.224-5.328zm16.704.036c0-1.488-.3-2.784-.9-3.888-.6-1.104-1.416-1.944-2.448-2.52-1.008-.6-2.124-.9-3.348-.9-1.224 0-2.34.288-3.348.864-1.008.576-1.812 1.416-2.412 2.52-.6 1.104-.9 2.4-.9 3.888 0 1.512.3 2.832.9 3.96.6 1.104 1.404 1.956 2.412 2.556 1.008.576 2.124.864 3.348.864 1.224 0 2.34-.288 3.348-.864 1.032-.6 1.848-1.452 2.448-2.556.6-1.128.9-2.436.9-3.924zm18.46-10.188c2.4 0 4.344.732 5.832 2.196 1.488 1.44 2.232 3.528 2.232 6.264V253h-3.24v-11.16c0-1.968-.492-3.468-1.476-4.5-.984-1.056-2.328-1.584-4.032-1.584-1.728 0-3.108.54-4.14 1.62-1.008 1.08-1.512 2.652-1.512 4.716V253h-3.276v-19.728h3.276v2.808a6.531 6.531 0 012.628-2.34c1.128-.552 2.364-.828 3.708-.828zm12.191 10.152c0-2.016.408-3.78 1.224-5.292.816-1.536 1.932-2.724 3.348-3.564 1.44-.84 3.048-1.26 4.824-1.26 1.536 0 2.964.36 4.284 1.08 1.32.696 2.328 1.62 3.024 2.772v-10.44h3.312V253h-3.312v-3.708c-.648 1.176-1.608 2.148-2.88 2.916-1.272.744-2.76 1.116-4.464 1.116-1.752 0-3.348-.432-4.788-1.296-1.416-.864-2.532-2.076-3.348-3.636-.816-1.56-1.224-3.336-1.224-5.328zm16.704.036c0-1.488-.3-2.784-.9-3.888-.6-1.104-1.416-1.944-2.448-2.52-1.008-.6-2.124-.9-3.348-.9-1.224 0-2.34.288-3.348.864-1.008.576-1.812 1.416-2.412 2.52-.6 1.104-.9 2.4-.9 3.888 0 1.512.3 2.832.9 3.96.6 1.104 1.404 1.956 2.412 2.556 1.008.576 2.124.864 3.348.864 1.224 0 2.34-.288 3.348-.864 1.032-.6 1.848-1.452 2.448-2.556.6-1.128.9-2.436.9-3.924zm25.43 10.224c-1.512 0-2.868-.252-4.068-.756-1.2-.528-2.148-1.248-2.844-2.16-.696-.936-1.08-2.004-1.152-3.204h3.384c.096.984.552 1.788 1.368 2.412.84.624 1.932.936 3.276.936 1.248 0 2.232-.276 2.952-.828.72-.552 1.08-1.248 1.08-2.088 0-.864-.384-1.5-1.152-1.908-.768-.432-1.956-.852-3.564-1.26-1.464-.384-2.664-.768-3.6-1.152a6.836 6.836 0 01-2.376-1.764c-.648-.792-.972-1.824-.972-3.096 0-1.008.3-1.932.9-2.772.6-.84 1.452-1.5 2.556-1.98 1.104-.504 2.364-.756 3.78-.756 2.184 0 3.948.552 5.292 1.656 1.344 1.104 2.064 2.616 2.16 4.536h-3.276c-.072-1.032-.492-1.86-1.26-2.484-.744-.624-1.752-.936-3.024-.936-1.176 0-2.112.252-2.808.756-.696.504-1.044 1.164-1.044 1.98 0 .648.204 1.188.612 1.62.432.408.96.744 1.584 1.008.648.24 1.536.516 2.664.828 1.416.384 2.568.768 3.456 1.152a5.73 5.73 0 012.268 1.656c.648.744.984 1.716 1.008 2.916 0 1.08-.3 2.052-.9 2.916-.6.864-1.452 1.548-2.556 2.052-1.08.48-2.328.72-3.744.72zm15.821-17.352V247.6c0 .96.204 1.644.612 2.052.408.384 1.116.576 2.124.576h2.412V253h-2.952c-1.824 0-3.192-.42-4.104-1.26-.912-.84-1.368-2.22-1.368-4.14v-11.628H146.2v-2.7h2.556v-4.968h3.276v4.968h5.148v2.7h-5.148zm17.721 17.352c-1.848 0-3.528-.42-5.04-1.26-1.488-.84-2.664-2.028-3.528-3.564-.84-1.56-1.26-3.36-1.26-5.4 0-2.016.432-3.792 1.296-5.328.888-1.56 2.088-2.748 3.6-3.564 1.512-.84 3.204-1.26 5.076-1.26 1.872 0 3.564.42 5.076 1.26 1.512.816 2.7 1.992 3.564 3.528.888 1.536 1.332 3.324 1.332 5.364s-.456 3.84-1.368 5.4a9.268 9.268 0 01-3.636 3.564c-1.536.84-3.24 1.26-5.112 1.26zm0-2.88c1.176 0 2.28-.276 3.312-.828 1.032-.552 1.86-1.38 2.484-2.484.648-1.104.972-2.448.972-4.032s-.312-2.928-.936-4.032c-.624-1.104-1.44-1.92-2.448-2.448a6.711 6.711 0 00-3.276-.828c-1.2 0-2.304.276-3.312.828-.984.528-1.776 1.344-2.376 2.448-.6 1.104-.9 2.448-.9 4.032 0 1.608.288 2.964.864 4.068.6 1.104 1.392 1.932 2.376 2.484.984.528 2.064.792 3.24.792zm17.699-13.968c.576-1.128 1.392-2.004 2.448-2.628 1.08-.624 2.388-.936 3.924-.936v3.384h-.864c-3.672 0-5.508 1.992-5.508 5.976V253h-3.276v-19.728h3.276v3.204zm11.846-6.408a2.155 2.155 0 01-1.584-.648 2.155 2.155 0 01-.648-1.584c0-.624.216-1.152.648-1.584.432-.432.96-.648 1.584-.648.6 0 1.104.216 1.512.648.432.432.648.96.648 1.584 0 .624-.216 1.152-.648 1.584a1.997 1.997 0 01-1.512.648zm1.584 3.204V253h-3.276v-19.728h3.276zm23.583 9.108c0 .624-.036 1.284-.108 1.98h-15.768c.12 1.944.78 3.468 1.98 4.572 1.224 1.08 2.7 1.62 4.428 1.62 1.416 0 2.592-.324 3.528-.972a5.302 5.302 0 002.016-2.664h3.528c-.528 1.896-1.584 3.444-3.168 4.644-1.584 1.176-3.552 1.764-5.904 1.764-1.872 0-3.552-.42-5.04-1.26-1.464-.84-2.616-2.028-3.456-3.564-.84-1.56-1.26-3.36-1.26-5.4 0-2.04.408-3.828 1.224-5.364.816-1.536 1.956-2.712 3.42-3.528 1.488-.84 3.192-1.26 5.112-1.26 1.872 0 3.528.408 4.968 1.224a8.324 8.324 0 013.312 3.384c.792 1.416 1.188 3.024 1.188 4.824zm-3.384-.684c0-1.248-.276-2.316-.828-3.204a5.21 5.21 0 00-2.268-2.052c-.936-.48-1.98-.72-3.132-.72-1.656 0-3.072.528-4.248 1.584-1.152 1.056-1.812 2.52-1.98 4.392h12.456zm14.693 11.628c-1.512 0-2.868-.252-4.068-.756-1.2-.528-2.148-1.248-2.844-2.16-.696-.936-1.08-2.004-1.152-3.204h3.384c.096.984.552 1.788 1.368 2.412.84.624 1.932.936 3.276.936 1.248 0 2.232-.276 2.952-.828.72-.552 1.08-1.248 1.08-2.088 0-.864-.384-1.5-1.152-1.908-.768-.432-1.956-.852-3.564-1.26-1.464-.384-2.664-.768-3.6-1.152a6.836 6.836 0 01-2.376-1.764c-.648-.792-.972-1.824-.972-3.096 0-1.008.3-1.932.9-2.772.6-.84 1.452-1.5 2.556-1.98 1.104-.504 2.364-.756 3.78-.756 2.184 0 3.948.552 5.292 1.656 1.344 1.104 2.064 2.616 2.16 4.536h-3.276c-.072-1.032-.492-1.86-1.26-2.484-.744-.624-1.752-.936-3.024-.936-1.176 0-2.112.252-2.808.756-.696.504-1.044 1.164-1.044 1.98 0 .648.204 1.188.612 1.62.432.408.96.744 1.584 1.008.648.24 1.536.516 2.664.828 1.416.384 2.568.768 3.456 1.152a5.73 5.73 0 012.268 1.656c.648.744.984 1.716 1.008 2.916 0 1.08-.3 2.052-.9 2.916-.6.864-1.452 1.548-2.556 2.052-1.08.48-2.328.72-3.744.72z" fill="#fff"/><path d="M175.677 114.688h-59.693a3.988 3.988 0 01-3.984-3.985V38.984A3.987 3.987 0 01115.984 35h59.693v79.688z" fill="#5D4037"/><path d="M178.645 103.425h-62.661A3.987 3.987 0 01112 99.441V38.984A3.987 3.987 0 01115.984 35h62.661v68.425z" fill="url(#paint1_linear)"/><path d="M160.503 64.644h-24.929a2.656 2.656 0 01-2.656-2.657V53.96a2.656 2.656 0 012.656-2.656h24.929a2.655 2.655 0 012.656 2.656v8.028a2.655 2.655 0 01-2.656 2.657z" fill="#D7CCC8"/><path d="M133.156 85.163h29.764M138.428 91.744h19.211" stroke="#5D4037" stroke-width=".75" stroke-miterlimit="10" stroke-linecap="round" stroke-linejoin="round"/><path d="M164.414 35h8.759v18.88l-3.347-4.091c-.285-.346-.657-.525-1.029-.525-.372 0-.751.173-1.029.525l-3.347 4.09V35h-.007z" fill="#ED1C24"/><path d="M173.114 112.556h-55.21a3.33 3.33 0 01-3.32-3.321v-2.49a3.33 3.33 0 013.32-3.32h55.217v9.131h-.007z" fill="url(#paint2_linear)"/><path d="M112 35h6.475v80.398H112V35z" fill="#5D4037"/><path opacity=".2" d="M176.653 36.992v64.441h-.969a1.99 1.99 0 00-1.993 1.992v9.27H116.27a2.281 2.281 0 01-2.278-2.277V39.27a2.282 2.282 0 012.278-2.278h60.383zM178.645 35H116.27a4.271 4.271 0 00-4.27 4.27v71.148a4.272 4.272 0 004.27 4.27h59.407v-11.263h2.962V35h.006z" fill="#424242"/><defs><linearGradient id="paint0_linear" x1="-29" y1="0" x2="282.12" y2="23.79" gradientUnits="userSpaceOnUse"><stop stop-color="#6D58C6"/><stop offset="1" stop-color="#F977A1"/></linearGradient><linearGradient id="paint1_linear" x1="145.323" y1="35.285" x2="145.323" y2="103.591" gradientUnits="userSpaceOnUse"><stop offset=".013" stop-color="#BCAAA4"/><stop offset="1" stop-color="#8D6E63"/></linearGradient><linearGradient id="paint2_linear" x1="114.847" y1="107.987" x2="173.002" y2="107.987" gradientUnits="userSpaceOnUse"><stop offset=".01" stop-color="#BDBDBD"/><stop offset=".987" stop-color="#F5F5F5"/></linearGradient></defs></svg>