<svg width="290" height="300" fill="none" xmlns="http://www.w3.org/2000/svg"><rect width="290" height="300" rx="50" fill="url(#paint0_linear)"/><path d="M63.755 176.572v8.388h9.144v2.7h-9.144v8.64h10.224v2.7h-13.5v-25.128h13.5v2.7H63.755zM89.232 199l-4.68-7.344-4.5 7.344h-3.42l6.372-9.792-6.372-9.936h3.708l4.68 7.308 4.464-7.308h3.42l-6.336 9.756L92.94 199h-3.708zm5.707-9.9c0-2.04.408-3.816 1.224-5.328.816-1.536 1.944-2.724 3.384-3.564 1.464-.84 3.132-1.26 5.004-1.26 2.424 0 4.416.588 5.976 1.764 1.584 1.176 2.628 2.808 3.132 4.896h-3.528c-.336-1.2-.996-2.148-1.98-2.844-.96-.696-2.16-1.044-3.6-1.044-1.872 0-3.384.648-4.536 1.944-1.152 1.272-1.728 3.084-1.728 5.436 0 2.376.576 4.212 1.728 5.508 1.152 1.296 2.664 1.944 4.536 1.944 1.44 0 2.64-.336 3.6-1.008.96-.672 1.62-1.632 1.98-2.88h3.528c-.528 2.016-1.584 3.636-3.168 4.86-1.584 1.2-3.564 1.8-5.94 1.8-1.872 0-3.54-.42-5.004-1.26-1.44-.84-2.568-2.028-3.384-3.564-.816-1.536-1.224-3.336-1.224-5.4zm32.883-10.188c1.488 0 2.832.324 4.032.972 1.2.624 2.136 1.572 2.808 2.844.696 1.272 1.044 2.82 1.044 4.644V199h-3.24v-11.16c0-1.968-.492-3.468-1.476-4.5-.984-1.056-2.328-1.584-4.032-1.584-1.728 0-3.108.54-4.14 1.62-1.008 1.08-1.512 2.652-1.512 4.716V199h-3.276v-26.64h3.276v9.72c.648-1.008 1.536-1.788 2.664-2.34 1.152-.552 2.436-.828 3.852-.828zm12.011 10.152c0-2.016.408-3.78 1.224-5.292.816-1.536 1.932-2.724 3.348-3.564 1.44-.84 3.036-1.26 4.788-1.26 1.728 0 3.228.372 4.5 1.116 1.272.744 2.22 1.68 2.844 2.808v-3.6h3.312V199h-3.312v-3.672c-.648 1.152-1.62 2.112-2.916 2.88-1.272.744-2.76 1.116-4.464 1.116-1.752 0-3.336-.432-4.752-1.296-1.416-.864-2.532-2.076-3.348-3.636-.816-1.56-1.224-3.336-1.224-5.328zm16.704.036c0-1.488-.3-2.784-.9-3.888-.6-1.104-1.416-1.944-2.448-2.52-1.008-.6-2.124-.9-3.348-.9-1.224 0-2.34.288-3.348.864-1.008.576-1.812 1.416-2.412 2.52-.6 1.104-.9 2.4-.9 3.888 0 1.512.3 2.832.9 3.96.6 1.104 1.404 1.956 2.412 2.556 1.008.576 2.124.864 3.348.864 1.224 0 2.34-.288 3.348-.864 1.032-.6 1.848-1.452 2.448-2.556.6-1.128.9-2.436.9-3.924zm18.46-10.188c2.4 0 4.344.732 5.832 2.196 1.488 1.44 2.232 3.528 2.232 6.264V199h-3.24v-11.16c0-1.968-.492-3.468-1.476-4.5-.984-1.056-2.328-1.584-4.032-1.584-1.728 0-3.108.54-4.14 1.62-1.008 1.08-1.512 2.652-1.512 4.716V199h-3.276v-19.728h3.276v2.808a6.531 6.531 0 012.628-2.34c1.128-.552 2.364-.828 3.708-.828zm21.552.036c1.704 0 3.192.372 4.464 1.116 1.296.744 2.256 1.68 2.88 2.808v-3.6h3.312v20.16c0 1.8-.384 3.396-1.152 4.788-.768 1.416-1.872 2.52-3.312 3.312-1.416.792-3.072 1.188-4.968 1.188-2.592 0-4.752-.612-6.48-1.836-1.728-1.224-2.748-2.892-3.06-5.004h3.24c.36 1.2 1.104 2.16 2.232 2.88 1.128.744 2.484 1.116 4.068 1.116 1.8 0 3.264-.564 4.392-1.692 1.152-1.128 1.728-2.712 1.728-4.752v-4.14c-.648 1.152-1.608 2.112-2.88 2.88-1.272.768-2.76 1.152-4.464 1.152-1.752 0-3.348-.432-4.788-1.296-1.416-.864-2.532-2.076-3.348-3.636-.816-1.56-1.224-3.336-1.224-5.328 0-2.016.408-3.78 1.224-5.292.816-1.536 1.932-2.724 3.348-3.564 1.44-.84 3.036-1.26 4.788-1.26zm7.344 10.152c0-1.488-.3-2.784-.9-3.888-.6-1.104-1.416-1.944-2.448-2.52-1.008-.6-2.124-.9-3.348-.9-1.224 0-2.34.288-3.348.864-1.008.576-1.812 1.416-2.412 2.52-.6 1.104-.9 2.4-.9 3.888 0 1.512.3 2.832.9 3.96.6 1.104 1.404 1.956 2.412 2.556 1.008.576 2.124.864 3.348.864 1.224 0 2.34-.288 3.348-.864 1.032-.6 1.848-1.452 2.448-2.556.6-1.128.9-2.436.9-3.924zm26.848-.72c0 .624-.036 1.284-.108 1.98h-15.768c.12 1.944.78 3.468 1.98 4.572 1.224 1.08 2.7 1.62 4.428 1.62 1.416 0 2.592-.324 3.528-.972a5.302 5.302 0 002.016-2.664h3.528c-.528 1.896-1.584 3.444-3.168 4.644-1.584 1.176-3.552 1.764-5.904 1.764-1.872 0-3.552-.42-5.04-1.26-1.464-.84-2.616-2.028-3.456-3.564-.84-1.56-1.26-3.36-1.26-5.4 0-2.04.408-3.828 1.224-5.364.816-1.536 1.956-2.712 3.42-3.528 1.488-.84 3.192-1.26 5.112-1.26 1.872 0 3.528.408 4.968 1.224a8.324 8.324 0 013.312 3.384c.792 1.416 1.188 3.024 1.188 4.824zm-3.384-.684c0-1.248-.276-2.316-.828-3.204a5.21 5.21 0 00-2.268-2.052c-.936-.48-1.98-.72-3.132-.72-1.656 0-3.072.528-4.248 1.584-1.152 1.056-1.812 2.52-1.98 4.392h12.456zm-113.962 65.628c-1.512 0-2.868-.252-4.068-.756-1.2-.528-2.148-1.248-2.844-2.16-.696-.936-1.08-2.004-1.152-3.204h3.384c.096.984.552 1.788 1.368 2.412.84.624 1.932.936 3.276.936 1.248 0 2.232-.276 2.952-.828.72-.552 1.08-1.248 1.08-2.088 0-.864-.384-1.5-1.152-1.908-.768-.432-1.956-.852-3.564-1.26-1.464-.384-2.664-.768-3.6-1.152a6.836 6.836 0 01-2.376-1.764c-.648-.792-.972-1.824-.972-3.096 0-1.008.3-1.932.9-2.772.6-.84 1.452-1.5 2.556-1.98 1.104-.504 2.364-.756 3.78-.756 2.184 0 3.948.552 5.292 1.656 1.344 1.104 2.064 2.616 2.16 4.536h-3.276c-.072-1.032-.492-1.86-1.26-2.484-.744-.624-1.752-.936-3.024-.936-1.176 0-2.112.252-2.808.756-.696.504-1.044 1.164-1.044 1.98 0 .648.204 1.188.612 1.62.432.408.96.744 1.584 1.008.648.24 1.536.516 2.664.828 1.416.384 2.568.768 3.456 1.152a5.73 5.73 0 012.268 1.656c.648.744.984 1.716 1.008 2.916 0 1.08-.3 2.052-.9 2.916-.6.864-1.452 1.548-2.556 2.052-1.08.48-2.328.72-3.744.72zm22.84-.324l-7.74-8.712V253h-3.276v-26.64h3.276v15.66l7.596-8.748h4.572l-9.288 9.828 9.324 9.9h-4.464zm9.204-22.932a2.155 2.155 0 01-1.584-.648 2.155 2.155 0 01-.648-1.584c0-.624.216-1.152.648-1.584.432-.432.96-.648 1.584-.648.6 0 1.104.216 1.512.648.432.432.648.96.648 1.584 0 .624-.216 1.152-.648 1.584a1.997 1.997 0 01-1.512.648zm1.584 3.204V253h-3.276v-19.728h3.276zm8.859-6.912V253h-3.276v-26.64h3.276zm8.859 0V253h-3.276v-26.64h3.276zm12.568 26.964c-1.512 0-2.868-.252-4.068-.756-1.2-.528-2.148-1.248-2.844-2.16-.696-.936-1.08-2.004-1.152-3.204h3.384c.096.984.552 1.788 1.368 2.412.84.624 1.932.936 3.276.936 1.248 0 2.232-.276 2.952-.828.72-.552 1.08-1.248 1.08-2.088 0-.864-.384-1.5-1.152-1.908-.768-.432-1.956-.852-3.564-1.26-1.464-.384-2.664-.768-3.6-1.152a6.836 6.836 0 01-2.376-1.764c-.648-.792-.972-1.824-.972-3.096 0-1.008.3-1.932.9-2.772.6-.84 1.452-1.5 2.556-1.98 1.104-.504 2.364-.756 3.78-.756 2.184 0 3.948.552 5.292 1.656 1.344 1.104 2.064 2.616 2.16 4.536h-3.276c-.072-1.032-.492-1.86-1.26-2.484-.744-.624-1.752-.936-3.024-.936-1.176 0-2.112.252-2.808.756-.696.504-1.044 1.164-1.044 1.98 0 .648.204 1.188.612 1.62.432.408.96.744 1.584 1.008.648.24 1.536.516 2.664.828 1.416.384 2.568.768 3.456 1.152a5.73 5.73 0 012.268 1.656c.648.744.984 1.716 1.008 2.916 0 1.08-.3 2.052-.9 2.916-.6.864-1.452 1.548-2.556 2.052-1.08.48-2.328.72-3.744.72z" fill="#fff"/><path d="M100.353 44.898h89.289v36.735h-89.289V44.898z" fill="url(#paint1_linear)"/><path d="M103.861 47.906h82.282v31.04h-82.282v-31.04z" fill="#911616"/><path d="M191.875 86.492h-93.75l2.344-4.898h89.062l2.344 4.898z" fill="#FF2F29"/><path d="M189.931 85.594h-89.86l1.469-3.11h86.922l1.469 3.11z" fill="#420909"/><path d="M98.125 86.492h93.75v29.477h-93.75V86.492z" fill="url(#paint2_linear)"/><path opacity=".2" d="M187.305 47.242V80.97a2.342 2.342 0 00.133 1.672l2.093 4.382v26.602h-89.062V87.023l2.093-4.382c.25-.532.297-1.125.133-1.672V47.242h84.61zm2.343-2.344h-89.296v36.735h.093l-2.32 4.86v29.476h93.75V86.492l-2.328-4.86h.094V44.899h.007z" fill="#424242"/><path d="M111.103 97.172h-2.508c-.36 0-.649-.305-.649-.68l-1.203-3.21c0-.376.289-.68.649-.68h4.921c.36 0 .649.304.649.68l-1.203 3.21c-.008.383-.297.68-.656.68z" fill="url(#paint3_linear)"/><path d="M109.97 97.172h-.242c-.368 0-.657-.305-.657-.688l-.601-4.601c0-.383.297-.688.656-.688h1.445c.367 0 .657.305.657.688l-.602 4.601c0 .383-.297.688-.656.688z" fill="url(#paint4_linear)"/><path d="M111.095 93.156h-2.5a.66.66 0 01-.657-.656v-4.375a.66.66 0 01.657-.656h2.5a.66.66 0 01.656.656V92.5c0 .36-.289.656-.656.656z" fill="url(#paint5_linear)"/><path d="M107.393 92.016h-.969a.383.383 0 01-.383-.383v-3.477c0-.21.172-.383.383-.383h.969c.211 0 .382.172.382.383v3.477a.383.383 0 01-.382.383z" fill="url(#paint6_linear)"/><path d="M113.221 92.016h-.969a.383.383 0 01-.383-.383v-3.477c0-.21.172-.383.383-.383h.969c.211 0 .383.172.383.383v3.477a.384.384 0 01-.383.383z" fill="url(#paint7_linear)"/><path d="M181.46 97.172h-2.516c-.359 0-.648-.305-.648-.68l-1.203-3.21c0-.376.289-.68.648-.68h4.922c.359 0 .649.304.649.68l-1.204 3.21c0 .383-.289.68-.648.68z" fill="url(#paint8_linear)"/><path d="M180.319 97.172h-.242c-.367 0-.656-.305-.656-.688l-.602-4.601c0-.383.297-.688.657-.688h1.445c.367 0 .656.305.656.688l-.601 4.601a.663.663 0 01-.657.688z" fill="url(#paint9_linear)"/><path d="M181.451 93.156h-2.5a.66.66 0 01-.656-.656v-4.375a.66.66 0 01.656-.656h2.5a.66.66 0 01.656.656V92.5c0 .36-.289.656-.656.656z" fill="url(#paint10_linear)"/><path d="M177.749 92.016h-.969a.383.383 0 01-.383-.383v-3.477c0-.21.172-.383.383-.383h.969c.211 0 .383.172.383.383v3.477a.384.384 0 01-.383.383z" fill="url(#paint11_linear)"/><path d="M183.577 92.016h-.969a.38.38 0 01-.382-.383v-3.477c0-.21.171-.383.382-.383h.969c.211 0 .383.172.383.383v3.477a.384.384 0 01-.383.383z" fill="url(#paint12_linear)"/><path d="M120.087 74.063c.055.039.062.109.023.164l-2.929 3.906c-.039.055-.11.062-.164.023l-1.297-.969c-.055-.039-.063-.109-.024-.164l2.93-3.906c.039-.055.109-.062.164-.023l1.297.969z" fill="#8FAEBC"/><path d="M109.814 67.04a7.511 7.511 0 002.774 7.843 7.497 7.497 0 008.312.46l-2.765-4.6-3.078.226-5.243-3.93z" fill="#809CA8"/><path d="M113.353 61.711l5.601 4.195.297 2.47-6.313 8.437c.149.062.305.125.469.18.016.007.024.007.039.015.008 0 .024.008.032.008a7.27 7.27 0 001.851.367c1.438.164 2.969.14 4 .164 2.859.07 5.805 2.406 7.399 3.89l22.992 23.337 4.461-5.805-26.18-24.977-.188-.187c-4.093-3.93-2.632-7.016-4.312-9.57-.422-.649-.695-.993-.883-1.149a7.522 7.522 0 00-9.265-1.375z" fill="url(#paint13_linear)"/><path d="M126.946 82.188l4.446-5.47 23.289 22.212-4.922 6.406-22.813-23.148z" fill="url(#paint14_linear)"/><path d="M131.892 76.336c.321.235.391.68.157 1l-3.961 5.508a.714.714 0 01-1 .156.713.713 0 01-.157-1l3.961-5.507a.714.714 0 011-.157z" fill="#FF3238"/><path d="M185.837 67.97l-3.164 4.038-4.711-.234-1.344-4.516 3.18-4.023s-3.445-.758-6.211 2.758c-2.609 3.32 0 7.109 0 7.109L160.892 89.18l-4.321-.46-4.992 6.327 2.5 7.024-.039.047v.007l.055.008.015.055h.008l.039-.047 7.422.766 4.969-6.344-1.469-4.086 12.633-16.133s4.305 1.633 6.914-1.68c2.766-3.53 1.211-6.695 1.211-6.695zm-25.445 31.648l-4-.414-1.344-3.79L157.743 92l3.977.43 1.359 3.766-2.687 3.422z" fill="url(#paint15_linear)"/><path d="M154.035 62.117l-.711 9.438c-.047-.008-.086-.024-.133-.032-1.132-.195-1.929.391-2.085 1.305-.157.906.375 1.79 1.515 1.984l-3.859 2.72s-.61-1.376-.18-3.844c.461-2.649 4.125-12.204 4.125-12.204l1.328.633z" fill="#8FAEBC"/><path d="M155.972 105.359c-.039-3.179-.977-6.789-1.883-10.273-.813-3.14-1.586-6.102-1.625-8.547 0-.148 0-.305.008-.445l.007-.188h.204l3.117-.054-.016.21c-.015.172-.015.313-.015.422.031 2.047.75 4.829 1.515 7.766l.008.016c.953 3.671 1.937 7.476 1.984 11.054v.188l-3.304.047v-.196z" fill="#FFAB2E"/><path d="M155.596 86.047c-.016.164-.016.312-.016.437.032 2.07.758 4.86 1.524 7.82.953 3.665 1.937 7.462 1.984 11.016l-2.922.039c-.039-3.203-.984-6.82-1.89-10.32-.813-3.133-1.578-6.086-1.617-8.508 0-.133 0-.281.007-.437h.016l2.914-.047zm.406-.39l-.422.007-2.898.047h-.023l-.375-.008-.016.367c-.008.14-.016.305-.008.461.039 2.469.813 5.446 1.633 8.594.898 3.477 1.836 7.07 1.875 10.227l.008.382.383-.007 2.921-.039.383-.008-.008-.383c-.046-3.602-1.031-7.406-1.992-11.094v-.008c-.758-2.937-1.476-5.703-1.515-7.726 0-.102 0-.235.015-.399l.039-.414z" fill="#FFAB2E"/><path d="M153.033 82.016c-.031-.453-.344-.617-.562-.672l.5-2.875c.961.164 2.812 1.078 2.976 3.336.055.711-.054 1.656-.172 2.594a.845.845 0 00-.203-.023l-2.742.046.024-.18c.101-.82.21-1.75.179-2.226z" fill="#8FAEBC"/><path d="M152.436 86.328a.968.968 0 01-.781-.93.947.947 0 01.273-.687.97.97 0 01.672-.297l2.922-.047c.055 0 .117.008.187.016.016 0 .032.008.047.008a.96.96 0 01-.203 1.898l-2.93.047h-.015a.659.659 0 01-.172-.008z" fill="#FFC431"/><path d="M155.688 84.516c.016 0 .031.008.047.008.359.085.64.406.64.796a.837.837 0 01-.82.852h-.008l-2.914.047h-.015a.829.829 0 01-.836-.82.837.837 0 01.82-.852h.18l2.742-.047c.055 0 .109 0 .164.016zm.047-.25c-.078-.016-.141-.024-.211-.016l-2.742.047h-.18a1.098 1.098 0 00-.766.336 1.084 1.084 0 00.578 1.82.766.766 0 00.188.016h.039l2.914-.047h.008a1.095 1.095 0 001.07-1.11 1.083 1.083 0 00-.844-1.038c-.015 0-.039-.008-.054-.008z" fill="#FFC431"/><path d="M135.057 101.289l.07-.18c1.25-3.351 3.461-6.601 5.602-9.734 1.718-2.523 3.335-4.89 4.054-6.805.039-.101.078-.226.125-.398l.055-.203 2.914 1.101.016.008.171.063-.054.18a5.193 5.193 0 01-.141.421c-.859 2.281-2.586 4.82-4.414 7.5-2.031 2.977-4.125 6.055-5.242 9.039l-.07.18-3.086-1.172z" fill="#FFAB2E"/><path d="M145.087 84.219l2.726 1.031h.016c-.047.14-.086.281-.141.414-.851 2.266-2.57 4.79-4.39 7.461-2.039 2.984-4.141 6.078-5.258 9.078l-2.734-1.023c1.242-3.328 3.453-6.57 5.586-9.703 1.718-2.524 3.343-4.907 4.07-6.844.039-.11.086-.25.125-.414zm-.25-.508l-.109.406a3.75 3.75 0 01-.125.383c-.711 1.89-2.321 4.258-4.024 6.758l-.008.008c-2.148 3.148-4.367 6.406-5.625 9.781l-.133.359.36.133 2.734 1.023.36.133.132-.359c1.11-2.961 3.196-6.031 5.219-8.992 1.836-2.688 3.563-5.235 4.438-7.54.054-.148.101-.304.148-.437l.109-.351-.343-.125-.024-.008h-.008l-2.703-1.024-.398-.148z" fill="#FFAB2E"/><path d="M148.859 81.29c.188-.415.532-.47.758-.438l.5-2.875c-.961-.164-3.015.062-3.93 2.133-.289.656-.507 1.578-.71 2.5.07.008.132.023.203.047l2.562.968c.016-.062.024-.117.039-.18.18-.804.383-1.718.578-2.156z" fill="#8FAEBC"/><path d="M147.89 85.54a1.024 1.024 0 01-.148-.04l-.016-.008-2.727-1.03a.935.935 0 01-.539-.509.924.924 0 01-.023-.734.948.948 0 011.008-.61c.031 0 .054.008.086.016.054.008.101.024.148.04l2.735 1.03c.5.188.75.743.562 1.243a.98.98 0 01-1.086.601z" fill="#FFC431"/><path d="M145.508 82.742c.039.008.086.016.125.031l2.563.97.172.062a.838.838 0 01.139 1.489.838.838 0 01-.593.112c-.039-.008-.085-.023-.125-.031h-.015l-2.727-1.031h-.008a.838.838 0 01-.484-1.078c.141-.368.5-.57.875-.532.024 0 .055 0 .078.008zm.047-.25c-.031-.008-.062-.008-.094-.015a1.08 1.08 0 00-1.14.695c-.102.273-.094.57.023.836.117.266.336.469.61.57l2.734 1.031.016.008h.015a.932.932 0 00.156.04 1.076 1.076 0 001.219-.688 1.092 1.092 0 00-.633-1.406l-.172-.063-2.562-.969c-.055-.015-.109-.031-.172-.039z" fill="#FFC431"/><path d="M151.581 74.492c.226.125.484.211.765.266 1.133.195 2.063-.383 2.219-1.29.149-.835-.391-1.648-1.367-1.929l2.523-9.148 1.461-.032s.219 10.149-.242 12.774c-.312 1.812-.961 2.883-1.273 3.32 0 .227-.016.453-.055.688a3.967 3.967 0 01-4.586 3.226 3.967 3.967 0 01-3.227-4.586 3.96 3.96 0 013.782-3.289z" fill="#BAD4DD"/><path d="M149.855 78.14a1.877 1.877 0 001.531 2.173 1.878 1.878 0 10.641-3.703c-1.024-.18-2 .507-2.172 1.53z" fill="#8FAEBC"/><defs><linearGradient id="paint0_linear" x1="-29" y1="0" x2="282.12" y2="23.79" gradientUnits="userSpaceOnUse"><stop stop-color="#6D58C6"/><stop offset="1" stop-color="#F977A1"/></linearGradient><linearGradient id="paint1_linear" x1="145.001" y1="44.898" x2="145.001" y2="87.446" gradientUnits="userSpaceOnUse"><stop offset=".065" stop-color="#D4292E"/><stop offset=".399" stop-color="#D2292E"/><stop offset=".584" stop-color="#CA292E"/><stop offset=".732" stop-color="#BC2A2F"/><stop offset=".861" stop-color="#A82B30"/><stop offset=".976" stop-color="#8F2C31"/><stop offset="1" stop-color="#892C31"/></linearGradient><linearGradient id="paint2_linear" x1="99.037" y1="101.227" x2="191.469" y2="101.227" gradientUnits="userSpaceOnUse"><stop offset=".085" stop-color="#D4292E"/><stop offset=".521" stop-color="#D2292E"/><stop offset=".678" stop-color="#CB292E"/><stop offset=".79" stop-color="#C02A2F"/><stop offset=".88" stop-color="#AF2A2F"/><stop offset=".957" stop-color="#992B30"/><stop offset="1" stop-color="#892C31"/></linearGradient><linearGradient id="paint3_linear" x1="109.847" y1="92.773" x2="109.847" y2="97.133" gradientUnits="userSpaceOnUse"><stop stop-color="#BDBDBD"/><stop offset="1" stop-color="#757575"/></linearGradient><linearGradient id="paint4_linear" x1="109.847" y1="91.914" x2="109.847" y2="96.721" gradientUnits="userSpaceOnUse"><stop stop-color="#787878"/><stop offset="1" stop-color="#fff"/></linearGradient><linearGradient id="paint5_linear" x1="109.847" y1="87.47" x2="109.847" y2="93.153" gradientUnits="userSpaceOnUse"><stop stop-color="#BDBDBD"/><stop offset="1" stop-color="#757575"/></linearGradient><linearGradient id="paint6_linear" x1="106.908" y1="87.777" x2="106.908" y2="92.013" gradientUnits="userSpaceOnUse"><stop stop-color="#787878"/><stop offset="1" stop-color="#fff"/></linearGradient><linearGradient id="paint7_linear" x1="112.736" y1="87.777" x2="112.736" y2="92.013" gradientUnits="userSpaceOnUse"><stop stop-color="#787878"/><stop offset="1" stop-color="#fff"/></linearGradient><linearGradient id="paint8_linear" x1="180.202" y1="92.773" x2="180.202" y2="97.133" gradientUnits="userSpaceOnUse"><stop stop-color="#BDBDBD"/><stop offset="1" stop-color="#757575"/></linearGradient><linearGradient id="paint9_linear" x1="180.202" y1="91.914" x2="180.202" y2="96.721" gradientUnits="userSpaceOnUse"><stop stop-color="#787878"/><stop offset="1" stop-color="#fff"/></linearGradient><linearGradient id="paint10_linear" x1="180.201" y1="87.47" x2="180.201" y2="93.153" gradientUnits="userSpaceOnUse"><stop stop-color="#BDBDBD"/><stop offset="1" stop-color="#757575"/></linearGradient><linearGradient id="paint11_linear" x1="177.265" y1="87.777" x2="177.265" y2="92.013" gradientUnits="userSpaceOnUse"><stop stop-color="#787878"/><stop offset="1" stop-color="#fff"/></linearGradient><linearGradient id="paint12_linear" x1="183.093" y1="87.777" x2="183.093" y2="92.013" gradientUnits="userSpaceOnUse"><stop stop-color="#787878"/><stop offset="1" stop-color="#fff"/></linearGradient><linearGradient id="paint13_linear" x1="112.981" y1="65.774" x2="129.855" y2="80.354" gradientUnits="userSpaceOnUse"><stop stop-color="#BAD4DD"/><stop offset=".318" stop-color="#B6D1DA"/><stop offset=".608" stop-color="#ABC7D2"/><stop offset=".885" stop-color="#99B7C4"/><stop offset=".999" stop-color="#8FAEBC"/></linearGradient><linearGradient id="paint14_linear" x1="129.943" y1="78.81" x2="139.374" y2="88.998" gradientUnits="userSpaceOnUse"><stop stop-color="#D4292E"/><stop offset=".059" stop-color="#D2262B"/><stop offset=".653" stop-color="#C30A13"/><stop offset="1" stop-color="#BD000A"/></linearGradient><linearGradient id="paint15_linear" x1="155.325" y1="99.435" x2="183.746" y2="64.681" gradientUnits="userSpaceOnUse"><stop offset=".001" stop-color="#8FAEBC"/><stop offset=".261" stop-color="#94B3C0"/><stop offset=".587" stop-color="#A4C0CC"/><stop offset=".906" stop-color="#BAD4DD"/></linearGradient></defs></svg>