<svg width="290" height="300" fill="none" xmlns="http://www.w3.org/2000/svg"><rect width="290" height="300" rx="50" fill="url(#paint0_linear)"/><path d="M60.468 176.572v8.388h9.144v2.7h-9.144v8.64h10.224v2.7h-13.5v-25.128h13.5v2.7H60.468zm24.793 2.34c2.4 0 4.344.732 5.832 2.196 1.488 1.44 2.232 3.528 2.232 6.264V199h-3.24v-11.16c0-1.968-.492-3.468-1.476-4.5-.984-1.056-2.328-1.584-4.032-1.584-1.728 0-3.108.54-4.14 1.62-1.008 1.08-1.512 2.652-1.512 4.716V199h-3.276v-19.728h3.276v2.808a6.531 6.531 0 012.628-2.34c1.128-.552 2.364-.828 3.708-.828zM97.452 189.1c0-2.04.408-3.816 1.224-5.328.816-1.536 1.944-2.724 3.384-3.564 1.464-.84 3.132-1.26 5.004-1.26 2.424 0 4.416.588 5.976 1.764 1.584 1.176 2.628 2.808 3.132 4.896h-3.528c-.336-1.2-.996-2.148-1.98-2.844-.96-.696-2.16-1.044-3.6-1.044-1.872 0-3.384.648-4.536 1.944-1.152 1.272-1.728 3.084-1.728 5.436 0 2.376.576 4.212 1.728 5.508 1.152 1.296 2.664 1.944 4.536 1.944 1.44 0 2.64-.336 3.6-1.008.96-.672 1.62-1.632 1.98-2.88h3.528c-.528 2.016-1.584 3.636-3.168 4.86-1.584 1.2-3.564 1.8-5.94 1.8-1.872 0-3.54-.42-5.004-1.26-1.44-.84-2.568-2.028-3.384-3.564-.816-1.536-1.224-3.336-1.224-5.4zm26.367-6.624c.576-1.128 1.392-2.004 2.448-2.628 1.08-.624 2.388-.936 3.924-.936v3.384h-.864c-3.672 0-5.508 1.992-5.508 5.976V199h-3.276v-19.728h3.276v3.204zm27.146-3.204l-11.88 29.016h-3.384l3.888-9.504-7.956-19.512h3.636l6.192 15.984 6.12-15.984h3.384zm6.569 3.636c.648-1.128 1.608-2.064 2.88-2.808 1.296-.768 2.796-1.152 4.5-1.152 1.752 0 3.336.42 4.752 1.26 1.44.84 2.568 2.028 3.384 3.564.816 1.512 1.224 3.276 1.224 5.292 0 1.992-.408 3.768-1.224 5.328-.816 1.56-1.944 2.772-3.384 3.636-1.416.864-3 1.296-4.752 1.296-1.68 0-3.168-.372-4.464-1.116-1.272-.768-2.244-1.716-2.916-2.844v12.996h-3.276v-29.088h3.276v3.636zm13.392 6.156c0-1.488-.3-2.784-.9-3.888-.6-1.104-1.416-1.944-2.448-2.52-1.008-.576-2.124-.864-3.348-.864-1.2 0-2.316.3-3.348.9-1.008.576-1.824 1.428-2.448 2.556-.6 1.104-.9 2.388-.9 3.852 0 1.488.3 2.796.9 3.924.624 1.104 1.44 1.956 2.448 2.556a6.758 6.758 0 003.348.864c1.224 0 2.34-.288 3.348-.864 1.032-.6 1.848-1.452 2.448-2.556.6-1.128.9-2.448.9-3.96zm11.656-7.092V193.6c0 .96.204 1.644.612 2.052.408.384 1.116.576 2.124.576h2.412V199h-2.952c-1.824 0-3.192-.42-4.104-1.26-.912-.84-1.368-2.22-1.368-4.14v-11.628h-2.556v-2.7h2.556v-4.968h3.276v4.968h5.148v2.7h-5.148zm27.118 6.408c0 .624-.036 1.284-.108 1.98h-15.768c.12 1.944.78 3.468 1.98 4.572 1.224 1.08 2.7 1.62 4.428 1.62 1.416 0 2.592-.324 3.528-.972a5.302 5.302 0 002.016-2.664h3.528c-.528 1.896-1.584 3.444-3.168 4.644-1.584 1.176-3.552 1.764-5.904 1.764-1.872 0-3.552-.42-5.04-1.26-1.464-.84-2.616-2.028-3.456-3.564-.84-1.56-1.26-3.36-1.26-5.4 0-2.04.408-3.828 1.224-5.364.816-1.536 1.956-2.712 3.42-3.528 1.488-.84 3.192-1.26 5.112-1.26 1.872 0 3.528.408 4.968 1.224a8.324 8.324 0 013.312 3.384c.792 1.416 1.188 3.024 1.188 4.824zm-3.384-.684c0-1.248-.276-2.316-.828-3.204a5.21 5.21 0 00-2.268-2.052c-.936-.48-1.98-.72-3.132-.72-1.656 0-3.072.528-4.248 1.584-1.152 1.056-1.812 2.52-1.98 4.392h12.456zm6.484 1.368c0-2.016.408-3.78 1.224-5.292.816-1.536 1.932-2.724 3.348-3.564 1.44-.84 3.048-1.26 4.824-1.26 1.536 0 2.964.36 4.284 1.08 1.32.696 2.328 1.62 3.024 2.772v-10.44h3.312V199h-3.312v-3.708c-.648 1.176-1.608 2.148-2.88 2.916-1.272.744-2.76 1.116-4.464 1.116-1.752 0-3.348-.432-4.788-1.296-1.416-.864-2.532-2.076-3.348-3.636-.816-1.56-1.224-3.336-1.224-5.328zm16.704.036c0-1.488-.3-2.784-.9-3.888-.6-1.104-1.416-1.944-2.448-2.52-1.008-.6-2.124-.9-3.348-.9-1.224 0-2.34.288-3.348.864-1.008.576-1.812 1.416-2.412 2.52-.6 1.104-.9 2.4-.9 3.888 0 1.512.3 2.832.9 3.96.6 1.104 1.404 1.956 2.412 2.556 1.008.576 2.124.864 3.348.864 1.224 0 2.34-.288 3.348-.864 1.032-.6 1.848-1.452 2.448-2.556.6-1.128.9-2.436.9-3.924zm-158.96 43.812c1.537 0 2.905.324 4.105.972 1.2.624 2.148 1.572 2.844 2.844.696 1.272 1.044 2.82 1.044 4.644V253h-3.24v-11.16c0-1.968-.492-3.468-1.476-4.5-.96-1.056-2.268-1.584-3.924-1.584-1.704 0-3.06.552-4.068 1.656-1.008 1.08-1.512 2.652-1.512 4.716V253h-3.24v-11.16c0-1.968-.492-3.468-1.476-4.5-.96-1.056-2.268-1.584-3.924-1.584-1.704 0-3.06.552-4.068 1.656-1.008 1.08-1.512 2.652-1.512 4.716V253H46.82v-19.728h3.276v2.844a6.503 6.503 0 012.592-2.376c1.104-.552 2.316-.828 3.636-.828 1.656 0 3.12.372 4.392 1.116 1.272.744 2.22 1.836 2.844 3.276a6.47 6.47 0 012.736-3.24c1.272-.768 2.688-1.152 4.248-1.152zm31.367 9.468c0 .624-.036 1.284-.108 1.98H86.035c.12 1.944.78 3.468 1.98 4.572 1.224 1.08 2.7 1.62 4.428 1.62 1.416 0 2.592-.324 3.528-.972a5.302 5.302 0 002.016-2.664h3.528c-.528 1.896-1.584 3.444-3.168 4.644-1.584 1.176-3.552 1.764-5.904 1.764-1.872 0-3.552-.42-5.04-1.26-1.464-.84-2.616-2.028-3.456-3.564-.84-1.56-1.26-3.36-1.26-5.4 0-2.04.408-3.828 1.224-5.364.816-1.536 1.956-2.712 3.42-3.528 1.488-.84 3.192-1.26 5.112-1.26 1.872 0 3.528.408 4.968 1.224a8.327 8.327 0 013.312 3.384c.792 1.416 1.188 3.024 1.188 4.824zm-3.384-.684c0-1.248-.276-2.316-.828-3.204a5.21 5.21 0 00-2.268-2.052c-.936-.48-1.98-.72-3.132-.72-1.656 0-3.072.528-4.248 1.584-1.152 1.056-1.812 2.52-1.98 4.392h12.456zm14.692 11.628c-1.512 0-2.868-.252-4.068-.756-1.2-.528-2.148-1.248-2.844-2.16-.696-.936-1.08-2.004-1.152-3.204h3.384c.096.984.552 1.788 1.368 2.412.84.624 1.932.936 3.276.936 1.248 0 2.232-.276 2.952-.828.72-.552 1.08-1.248 1.08-2.088 0-.864-.384-1.5-1.152-1.908-.768-.432-1.956-.852-3.564-1.26-1.464-.384-2.664-.768-3.6-1.152a6.836 6.836 0 01-2.376-1.764c-.648-.792-.972-1.824-.972-3.096 0-1.008.3-1.932.9-2.772.6-.84 1.452-1.5 2.556-1.98 1.104-.504 2.364-.756 3.78-.756 2.184 0 3.948.552 5.292 1.656 1.344 1.104 2.064 2.616 2.16 4.536h-3.276c-.072-1.032-.492-1.86-1.26-2.484-.744-.624-1.752-.936-3.024-.936-1.176 0-2.112.252-2.808.756-.696.504-1.044 1.164-1.044 1.98 0 .648.204 1.188.612 1.62.432.408.96.744 1.584 1.008.648.24 1.536.516 2.664.828 1.416.384 2.568.768 3.456 1.152a5.73 5.73 0 012.268 1.656c.648.744.984 1.716 1.008 2.916 0 1.08-.3 2.052-.9 2.916-.6.864-1.452 1.548-2.556 2.052-1.08.48-2.328.72-3.744.72zm18.808 0c-1.512 0-2.868-.252-4.068-.756-1.2-.528-2.148-1.248-2.844-2.16-.696-.936-1.08-2.004-1.152-3.204h3.384c.096.984.552 1.788 1.368 2.412.84.624 1.932.936 3.276.936 1.248 0 2.232-.276 2.952-.828.72-.552 1.08-1.248 1.08-2.088 0-.864-.384-1.5-1.152-1.908-.768-.432-1.956-.852-3.564-1.26-1.464-.384-2.664-.768-3.6-1.152a6.836 6.836 0 01-2.376-1.764c-.648-.792-.972-1.824-.972-3.096 0-1.008.3-1.932.9-2.772.6-.84 1.452-1.5 2.556-1.98 1.104-.504 2.364-.756 3.78-.756 2.184 0 3.948.552 5.292 1.656 1.344 1.104 2.064 2.616 2.16 4.536h-3.276c-.072-1.032-.492-1.86-1.26-2.484-.744-.624-1.752-.936-3.024-.936-1.176 0-2.112.252-2.808.756-.696.504-1.044 1.164-1.044 1.98 0 .648.204 1.188.612 1.62.432.408.96.744 1.584 1.008.648.24 1.536.516 2.664.828 1.416.384 2.568.768 3.456 1.152a5.73 5.73 0 012.268 1.656c.648.744.984 1.716 1.008 2.916 0 1.08-.3 2.052-.9 2.916-.6.864-1.452 1.548-2.556 2.052-1.08.48-2.328.72-3.744.72zm10.601-10.26c0-2.016.408-3.78 1.224-5.292.816-1.536 1.932-2.724 3.348-3.564 1.44-.84 3.036-1.26 4.788-1.26 1.728 0 3.228.372 4.5 1.116 1.272.744 2.22 1.68 2.844 2.808v-3.6h3.312V253h-3.312v-3.672c-.648 1.152-1.62 2.112-2.916 2.88-1.272.744-2.76 1.116-4.464 1.116-1.752 0-3.336-.432-4.752-1.296-1.416-.864-2.532-2.076-3.348-3.636-.816-1.56-1.224-3.336-1.224-5.328zm16.704.036c0-1.488-.3-2.784-.9-3.888-.6-1.104-1.416-1.944-2.448-2.52-1.008-.6-2.124-.9-3.348-.9-1.224 0-2.34.288-3.348.864-1.008.576-1.812 1.416-2.412 2.52-.6 1.104-.9 2.4-.9 3.888 0 1.512.3 2.832.9 3.96.6 1.104 1.404 1.956 2.412 2.556 1.008.576 2.124.864 3.348.864 1.224 0 2.34-.288 3.348-.864 1.032-.6 1.848-1.452 2.448-2.556.6-1.128.9-2.436.9-3.924zm16.984-10.152c1.704 0 3.192.372 4.464 1.116 1.296.744 2.256 1.68 2.88 2.808v-3.6h3.312v20.16c0 1.8-.384 3.396-1.152 4.788-.768 1.416-1.872 2.52-3.312 3.312-1.416.792-3.072 1.188-4.968 1.188-2.592 0-4.752-.612-6.48-1.836-1.728-1.224-2.748-2.892-3.06-5.004h3.24c.36 1.2 1.104 2.16 2.232 2.88 1.128.744 2.484 1.116 4.068 1.116 1.8 0 3.264-.564 4.392-1.692 1.152-1.128 1.728-2.712 1.728-4.752v-4.14c-.648 1.152-1.608 2.112-2.88 2.88-1.272.768-2.76 1.152-4.464 1.152-1.752 0-3.348-.432-4.788-1.296-1.416-.864-2.532-2.076-3.348-3.636-.816-1.56-1.224-3.336-1.224-5.328 0-2.016.408-3.78 1.224-5.292.816-1.536 1.932-2.724 3.348-3.564 1.44-.84 3.036-1.26 4.788-1.26zm7.344 10.152c0-1.488-.3-2.784-.9-3.888-.6-1.104-1.416-1.944-2.448-2.52-1.008-.6-2.124-.9-3.348-.9-1.224 0-2.34.288-3.348.864-1.008.576-1.812 1.416-2.412 2.52-.6 1.104-.9 2.4-.9 3.888 0 1.512.3 2.832.9 3.96.6 1.104 1.404 1.956 2.412 2.556 1.008.576 2.124.864 3.348.864 1.224 0 2.34-.288 3.348-.864 1.032-.6 1.848-1.452 2.448-2.556.6-1.128.9-2.436.9-3.924zm10.54-13.032a2.155 2.155 0 01-1.584-.648 2.155 2.155 0 01-.648-1.584c0-.624.216-1.152.648-1.584.432-.432.96-.648 1.584-.648.6 0 1.104.216 1.512.648.432.432.648.96.648 1.584 0 .624-.216 1.152-.648 1.584a1.997 1.997 0 01-1.512.648zm1.584 3.204V253h-3.276v-19.728h3.276zm15.196-.36c2.4 0 4.344.732 5.832 2.196 1.488 1.44 2.232 3.528 2.232 6.264V253h-3.24v-11.16c0-1.968-.492-3.468-1.476-4.5-.984-1.056-2.328-1.584-4.032-1.584-1.728 0-3.108.54-4.14 1.62-1.008 1.08-1.512 2.652-1.512 4.716V253h-3.276v-19.728h3.276v2.808a6.531 6.531 0 012.628-2.34c1.128-.552 2.364-.828 3.708-.828zm21.551.036c1.704 0 3.192.372 4.464 1.116 1.296.744 2.256 1.68 2.88 2.808v-3.6h3.312v20.16c0 1.8-.384 3.396-1.152 4.788-.768 1.416-1.872 2.52-3.312 3.312-1.416.792-3.072 1.188-4.968 1.188-2.592 0-4.752-.612-6.48-1.836-1.728-1.224-2.748-2.892-3.06-5.004h3.24c.36 1.2 1.104 2.16 2.232 2.88 1.128.744 2.484 1.116 4.068 1.116 1.8 0 3.264-.564 4.392-1.692 1.152-1.128 1.728-2.712 1.728-4.752v-4.14c-.648 1.152-1.608 2.112-2.88 2.88-1.272.768-2.76 1.152-4.464 1.152-1.752 0-3.348-.432-4.788-1.296-1.416-.864-2.532-2.076-3.348-3.636-.816-1.56-1.224-3.336-1.224-5.328 0-2.016.408-3.78 1.224-5.292.816-1.536 1.932-2.724 3.348-3.564 1.44-.84 3.036-1.26 4.788-1.26zm7.344 10.152c0-1.488-.3-2.784-.9-3.888-.6-1.104-1.416-1.944-2.448-2.52-1.008-.6-2.124-.9-3.348-.9-1.224 0-2.34.288-3.348.864-1.008.576-1.812 1.416-2.412 2.52-.6 1.104-.9 2.4-.9 3.888 0 1.512.3 2.832.9 3.96.6 1.104 1.404 1.956 2.412 2.556 1.008.576 2.124.864 3.348.864 1.224 0 2.34-.288 3.348-.864 1.032-.6 1.848-1.452 2.448-2.556.6-1.128.9-2.436.9-3.924z" fill="#fff"/><path d="M182.836 96.883h-76.102L98 111.758h93.656l-8.82-14.875z" fill="url(#paint1_linear)"/><path opacity=".2" d="M109.781 94.805l70.008.007 9.125 15.391h-88.18l9.047-15.398zm-.898-1.563L98 111.758h93.656L180.68 93.242h-71.797z" fill="#424242"/><path d="M115.805 99.188h-5.032l.68-1.313h5.047l-.695 1.313zM123.679 99.188h-5.032l.625-1.313h5.165l-.758 1.313zM131.169 99.188h-5.031l.718-1.313h5.04l-.727 1.313zM138.621 99.188h-5.031l.812-1.313h4.711l-.492 1.313zM145.969 99.188h-5.031l.398-1.313h4.226l.407 1.313zM153.466 99.188h-5.039l-.555-1.313h4.766l.828 1.313zM161.155 99.188h-5.031l-.953-1.313h5.031l.953 1.313zM168.566 99.188h-5.031l-.898-1.313h5.039l.89 1.313zM178.646 99.188h-7.554l-.961-1.313h7.773l.742 1.313zM174.793 101.148h5.031l-.89-1.312h-5.11l.969 1.312zM166.569 101.148h5.032l-.961-1.312h-5.032l.961 1.312zM159.061 101.148h5.031l-.852-1.312h-5.023l.844 1.312zM150.989 101.148h5.032l-.899-1.312h-4.742l.609 1.312zM143.788 101.148h5.031l-.554-1.312h-4.243l-.234 1.312zM136.585 101.148h5.031l.305-1.312h-4.875l-.461 1.312zM128.7 101.148h5.031l.61-1.312h-4.828l-.813 1.312zM119.936 101.148h5.031l.781-1.312h-5.039l-.773 1.312zM109.67 101.148h7.562l.743-1.312h-7.586l-.719 1.312zM157.333 103.109h5.039l-.875-1.312h-5.031l.867 1.312zM149.318 103.109h5.032l-.735-1.312h-4.719l.422 1.312zM139.864 103.109h5.032l-.141-1.312h-4.5l-.391 1.312zM130.866 103.109h5.039l.446-1.312h-4.829l-.656 1.312zM121.389 103.109h5.039l.797-1.312h-5.039l-.797 1.312zM108.693 103.109h10.039l.829-1.312h-10.133l-.735 1.312zM165.834 103.133h15.078l-.898-1.36h-15.071l.891 1.36zM177.287 105.07h5.031l-1.015-1.312h-5.032l1.016 1.312zM167.891 105.07h5.039l-.985-1.312h-5.031l.977 1.312zM127.785 105.07h34.18l-.789-1.312h-32.617l-.774 1.312zM117.054 105.07h5.031l.617-1.312h-4.922l-.726 1.312zM107.436 105.07h5.039l.593-1.312h-4.914l-.718 1.312zM127.248 108.531h35.008l-1.5-2.719h-32.055l-1.453 2.719z" fill="#F5F5F5"/><path d="M189.984 114.828H99.672c-.922 0-1.672-.75-1.672-1.672v-1.398h93.656v1.398c0 .93-.75 1.672-1.672 1.672z" fill="#9E9E9E"/><path opacity=".2" d="M190.875 112.539v.617a.89.89 0 01-.891.891H99.672a.89.89 0 01-.89-.891v-.617h92.093zm.781-.781H98v1.398c0 .922.75 1.672 1.672 1.672h90.312c.922 0 1.672-.75 1.672-1.672v-1.398z" fill="#424242"/><path d="M182.836 96.883h-76.102V48.219c0-1.227.993-2.219 2.219-2.219h71.656c1.227 0 2.219.992 2.219 2.219v48.664h.008z" fill="url(#paint2_linear)"/><path opacity=".2" d="M180.609 47.563c.368 0 .657.296.657.656V95.32h-72.969V48.22c0-.367.297-.657.656-.657h71.656zm0-1.563h-71.656a2.218 2.218 0 00-2.219 2.219v48.664h76.102V48.219c0-1.227-1-2.219-2.227-2.219z" fill="#424242"/><path d="M113.643 51.688h62.234v38.984h-62.234V51.688z" fill="#616161"/><path d="M146.968 74.887h.18a2.37 2.37 0 002.37-2.37v-9.035a2.445 2.445 0 00-2.438-2.438h-4.694a2.404 2.404 0 00-2.398 2.398v4.833a.911.911 0 01-.911.912h-1.81a.911.911 0 01-.912-.912v-4.793c.003-3.337 2.733-6.068 6.071-6.068h4.725a6 6 0 016 6v9.05c0 3.33-2.724 6.053-6.054 6.053h-.127v-3.63h-.002z" fill="#BDBDBD"/><path opacity=".2" d="M147.15 58.117a5.304 5.304 0 015.297 5.297v9.05a5.36 5.36 0 01-4.774 5.32v-2.239a3.077 3.077 0 002.55-3.028v-9.035a3.144 3.144 0 00-3.141-3.14h-4.694a3.104 3.104 0 00-3.101 3.1v4.833a.21.21 0 01-.209.209h-1.809a.21.21 0 01-.209-.209v-4.793a5.375 5.375 0 015.367-5.365h4.723zm0-.703h-4.723c-3.337 0-6.068 2.73-6.068 6.068v4.793c0 .504.408.912.912.912h1.809a.911.911 0 00.912-.912v-4.833a2.404 2.404 0 012.398-2.398h4.694a2.445 2.445 0 012.438 2.438v9.035a2.37 2.37 0 01-2.37 2.37h-.18v3.63h.126c3.331 0 6.054-2.723 6.054-6.054v-9.049a6.003 6.003 0 00-6.002-6z" fill="#424242"/><path d="M153.919 85.54h-18.328a1.717 1.717 0 01-1.716-1.717V69.9c0-.947.769-1.715 1.716-1.715h18.328c.947 0 1.715.768 1.715 1.715v13.924a1.717 1.717 0 01-1.715 1.716z" fill="url(#paint3_linear)"/><path opacity=".2" d="M153.919 68.89c.558 0 1.012.454 1.012 1.012v13.924c0 .558-.454 1.012-1.012 1.012h-18.328a1.015 1.015 0 01-1.013-1.012V69.899c0-.558.455-1.012 1.013-1.012h18.328v.002zm0-.704h-18.328c-.947 0-1.716.769-1.716 1.716v13.924c0 .947.769 1.716 1.716 1.716h18.328c.947 0 1.715-.77 1.715-1.716V69.899a1.717 1.717 0 00-1.715-1.713z" fill="#424242"/><defs><linearGradient id="paint0_linear" x1="-29" y1="0" x2="282.12" y2="23.79" gradientUnits="userSpaceOnUse"><stop stop-color="#6D58C6"/><stop offset="1" stop-color="#F977A1"/></linearGradient><linearGradient id="paint1_linear" x1="144.827" y1="111.723" x2="144.827" y2="96.98" gradientUnits="userSpaceOnUse"><stop stop-color="#E0E0E0"/><stop offset="1" stop-color="#9E9E9E"/></linearGradient><linearGradient id="paint2_linear" x1="144.784" y1="46.127" x2="144.784" y2="96.563" gradientUnits="userSpaceOnUse"><stop offset=".006" stop-color="#E0E0E0"/><stop offset=".999" stop-color="#9E9E9E"/></linearGradient><linearGradient id="paint3_linear" x1="144.755" y1="85.314" x2="144.755" y2="68.268" gradientUnits="userSpaceOnUse"><stop offset=".005" stop-color="#FFA000"/><stop offset="1" stop-color="#FFC107"/></linearGradient></defs></svg>