<svg width="290" height="300" fill="none" xmlns="http://www.w3.org/2000/svg"><rect width="290" height="300" rx="50" fill="url(#paint0_linear)"/><path d="M55.174 173.908v18.54c0 2.064-.636 3.72-1.908 4.968-1.272 1.224-2.952 1.836-5.04 1.836-2.112 0-3.804-.624-5.076-1.872-1.272-1.272-1.908-3-1.908-5.184h3.276c.024 1.224.336 2.22.936 2.988.624.768 1.548 1.152 2.772 1.152 1.224 0 2.136-.36 2.736-1.08.6-.744.9-1.68.9-2.808v-18.54h3.312zm15.057 25.416c-1.847 0-3.527-.42-5.04-1.26-1.488-.84-2.663-2.028-3.528-3.564-.84-1.56-1.26-3.36-1.26-5.4 0-2.016.433-3.792 1.297-5.328.887-1.56 2.087-2.748 3.6-3.564 1.511-.84 3.204-1.26 5.076-1.26 1.871 0 3.563.42 5.075 1.26 1.513.816 2.7 1.992 3.565 3.528.887 1.536 1.331 3.324 1.331 5.364s-.456 3.84-1.367 5.4a9.268 9.268 0 01-3.636 3.564c-1.536.84-3.24 1.26-5.112 1.26zm0-2.88c1.177 0 2.28-.276 3.313-.828 1.032-.552 1.86-1.38 2.484-2.484.647-1.104.971-2.448.971-4.032s-.311-2.928-.935-4.032c-.624-1.104-1.44-1.92-2.448-2.448a6.711 6.711 0 00-3.276-.828c-1.2 0-2.305.276-3.313.828-.984.528-1.776 1.344-2.376 2.448-.6 1.104-.9 2.448-.9 4.032 0 1.608.289 2.964.864 4.068.6 1.104 1.392 1.932 2.377 2.484.983.528 2.063.792 3.24.792zm16.116-20.376a2.155 2.155 0 01-1.584-.648 2.155 2.155 0 01-.648-1.584c0-.624.216-1.152.648-1.584.432-.432.96-.648 1.584-.648.6 0 1.104.216 1.512.648.432.432.648.96.648 1.584 0 .624-.216 1.152-.648 1.584a1.997 1.997 0 01-1.512.648zm1.584 3.204V199h-3.276v-19.728h3.276zm15.195-.36c2.4 0 4.344.732 5.832 2.196 1.488 1.44 2.232 3.528 2.232 6.264V199h-3.24v-11.16c0-1.968-.492-3.468-1.476-4.5-.984-1.056-2.328-1.584-4.032-1.584-1.728 0-3.108.54-4.14 1.62-1.008 1.08-1.512 2.652-1.512 4.716V199h-3.276v-19.728h3.276v2.808a6.531 6.531 0 012.628-2.34c1.128-.552 2.364-.828 3.708-.828zm21.789 10.152c0-2.016.408-3.78 1.224-5.292.816-1.536 1.932-2.724 3.348-3.564 1.44-.84 3.036-1.26 4.788-1.26 1.728 0 3.228.372 4.5 1.116 1.272.744 2.22 1.68 2.844 2.808v-3.6h3.312V199h-3.312v-3.672c-.648 1.152-1.62 2.112-2.916 2.88-1.272.744-2.76 1.116-4.464 1.116-1.752 0-3.336-.432-4.752-1.296-1.416-.864-2.532-2.076-3.348-3.636-.816-1.56-1.224-3.336-1.224-5.328zm16.704.036c0-1.488-.3-2.784-.9-3.888-.6-1.104-1.416-1.944-2.448-2.52-1.008-.6-2.124-.9-3.348-.9-1.224 0-2.34.288-3.348.864-1.008.576-1.812 1.416-2.412 2.52-.6 1.104-.9 2.4-.9 3.888 0 1.512.3 2.832.9 3.96.6 1.104 1.404 1.956 2.412 2.556 1.008.576 2.124.864 3.348.864 1.224 0 2.34-.288 3.348-.864 1.032-.6 1.848-1.452 2.448-2.556.6-1.128.9-2.436.9-3.924zm21.722-16.74V199h-3.276v-26.64h3.276zm14.187 26.964c-1.848 0-3.528-.42-5.04-1.26-1.488-.84-2.664-2.028-3.528-3.564-.84-1.56-1.26-3.36-1.26-5.4 0-2.016.432-3.792 1.296-5.328.888-1.56 2.088-2.748 3.6-3.564 1.512-.84 3.204-1.26 5.076-1.26 1.872 0 3.564.42 5.076 1.26 1.512.816 2.7 1.992 3.564 3.528.888 1.536 1.332 3.324 1.332 5.364s-.456 3.84-1.368 5.4a9.268 9.268 0 01-3.636 3.564c-1.536.84-3.24 1.26-5.112 1.26zm0-2.88c1.176 0 2.28-.276 3.312-.828 1.032-.552 1.86-1.38 2.484-2.484.648-1.104.972-2.448.972-4.032s-.312-2.928-.936-4.032c-.624-1.104-1.44-1.92-2.448-2.448a6.711 6.711 0 00-3.276-.828c-1.2 0-2.304.276-3.312.828-.984.528-1.776 1.344-2.376 2.448-.6 1.104-.9 2.448-.9 4.032 0 1.608.288 2.964.864 4.068.6 1.104 1.392 1.932 2.376 2.484.984.528 2.064.792 3.24.792zm13.2-7.344c0-2.04.408-3.816 1.224-5.328.816-1.536 1.944-2.724 3.384-3.564 1.464-.84 3.132-1.26 5.004-1.26 2.424 0 4.416.588 5.976 1.764 1.584 1.176 2.628 2.808 3.132 4.896h-3.528c-.336-1.2-.996-2.148-1.98-2.844-.96-.696-2.16-1.044-3.6-1.044-1.872 0-3.384.648-4.536 1.944-1.152 1.272-1.728 3.084-1.728 5.436 0 2.376.576 4.212 1.728 5.508 1.152 1.296 2.664 1.944 4.536 1.944 1.44 0 2.64-.336 3.6-1.008.96-.672 1.62-1.632 1.98-2.88h3.528c-.528 2.016-1.584 3.636-3.168 4.86-1.584 1.2-3.564 1.8-5.94 1.8-1.872 0-3.54-.42-5.004-1.26-1.44-.84-2.568-2.028-3.384-3.564-.816-1.536-1.224-3.336-1.224-5.4zm21.867-.036c0-2.016.408-3.78 1.224-5.292.816-1.536 1.932-2.724 3.348-3.564 1.44-.84 3.036-1.26 4.788-1.26 1.728 0 3.228.372 4.5 1.116 1.272.744 2.22 1.68 2.844 2.808v-3.6h3.312V199h-3.312v-3.672c-.648 1.152-1.62 2.112-2.916 2.88-1.272.744-2.76 1.116-4.464 1.116-1.752 0-3.336-.432-4.752-1.296-1.416-.864-2.532-2.076-3.348-3.636-.816-1.56-1.224-3.336-1.224-5.328zm16.704.036c0-1.488-.3-2.784-.9-3.888-.6-1.104-1.416-1.944-2.448-2.52-1.008-.6-2.124-.9-3.348-.9-1.224 0-2.34.288-3.348.864-1.008.576-1.812 1.416-2.412 2.52-.6 1.104-.9 2.4-.9 3.888 0 1.512.3 2.832.9 3.96.6 1.104 1.404 1.956 2.412 2.556 1.008.576 2.124.864 3.348.864 1.224 0 2.34-.288 3.348-.864 1.032-.6 1.848-1.452 2.448-2.556.6-1.128.9-2.436.9-3.924zm12.124-16.74V199h-3.276v-26.64h3.276zM44.642 235.972h-4.14V253h-3.276v-17.028H34.67v-2.7h2.556v-1.404c0-2.208.564-3.816 1.692-4.824 1.152-1.032 2.988-1.548 5.508-1.548v2.736c-1.44 0-2.46.288-3.06.864-.576.552-.864 1.476-.864 2.772v1.404h4.14v2.7zm12.423 17.352c-1.847 0-3.527-.42-5.04-1.26-1.487-.84-2.663-2.028-3.527-3.564-.84-1.56-1.26-3.36-1.26-5.4 0-2.016.431-3.792 1.295-5.328.889-1.56 2.088-2.748 3.6-3.564 1.512-.84 3.204-1.26 5.076-1.26 1.872 0 3.564.42 5.076 1.26 1.513.816 2.7 1.992 3.565 3.528.888 1.536 1.332 3.324 1.332 5.364s-.457 3.84-1.368 5.4a9.268 9.268 0 01-3.636 3.564c-1.536.84-3.24 1.26-5.112 1.26zm0-2.88c1.177 0 2.28-.276 3.313-.828 1.032-.552 1.86-1.38 2.483-2.484.649-1.104.973-2.448.973-4.032s-.313-2.928-.937-4.032c-.623-1.104-1.44-1.92-2.447-2.448a6.711 6.711 0 00-3.277-.828c-1.2 0-2.303.276-3.312.828-.983.528-1.775 1.344-2.375 2.448-.6 1.104-.9 2.448-.9 4.032 0 1.608.288 2.964.864 4.068.6 1.104 1.392 1.932 2.375 2.484.984.528 2.064.792 3.24.792zm13.2-7.344c0-2.04.408-3.816 1.224-5.328.816-1.536 1.944-2.724 3.384-3.564 1.464-.84 3.132-1.26 5.004-1.26 2.424 0 4.416.588 5.976 1.764 1.584 1.176 2.628 2.808 3.132 4.896h-3.528c-.336-1.2-.996-2.148-1.98-2.844-.96-.696-2.16-1.044-3.6-1.044-1.872 0-3.384.648-4.536 1.944-1.152 1.272-1.728 3.084-1.728 5.436 0 2.376.576 4.212 1.728 5.508 1.152 1.296 2.664 1.944 4.536 1.944 1.44 0 2.64-.336 3.6-1.008.96-.672 1.62-1.632 1.98-2.88h3.528c-.528 2.016-1.584 3.636-3.168 4.86-1.584 1.2-3.564 1.8-5.94 1.8-1.872 0-3.54-.42-5.004-1.26-1.44-.84-2.568-2.028-3.384-3.564-.816-1.536-1.224-3.336-1.224-5.4zm40.587-9.828V253h-3.276v-2.916c-.624 1.008-1.5 1.8-2.628 2.376-1.104.552-2.328.828-3.672.828-1.536 0-2.916-.312-4.14-.936-1.224-.648-2.196-1.608-2.916-2.88-.696-1.272-1.044-2.82-1.044-4.644v-11.556h3.24v11.124c0 1.944.492 3.444 1.476 4.5.984 1.032 2.328 1.548 4.032 1.548 1.752 0 3.132-.54 4.14-1.62 1.008-1.08 1.512-2.652 1.512-4.716v-10.836h3.276zm12.515 20.052c-1.512 0-2.868-.252-4.068-.756-1.2-.528-2.148-1.248-2.844-2.16-.696-.936-1.08-2.004-1.152-3.204h3.384c.096.984.552 1.788 1.368 2.412.84.624 1.932.936 3.276.936 1.248 0 2.232-.276 2.952-.828.72-.552 1.08-1.248 1.08-2.088 0-.864-.384-1.5-1.152-1.908-.768-.432-1.956-.852-3.564-1.26-1.464-.384-2.664-.768-3.6-1.152a6.836 6.836 0 01-2.376-1.764c-.648-.792-.972-1.824-.972-3.096 0-1.008.3-1.932.9-2.772.6-.84 1.452-1.5 2.556-1.98 1.104-.504 2.364-.756 3.78-.756 2.184 0 3.948.552 5.292 1.656 1.344 1.104 2.064 2.616 2.16 4.536h-3.276c-.072-1.032-.492-1.86-1.26-2.484-.744-.624-1.752-.936-3.024-.936-1.176 0-2.112.252-2.808.756-.696.504-1.044 1.164-1.044 1.98 0 .648.204 1.188.612 1.62.432.408.96.744 1.584 1.008.648.24 1.536.516 2.664.828 1.416.384 2.568.768 3.456 1.152a5.73 5.73 0 012.268 1.656c.648.744.984 1.716 1.008 2.916 0 1.08-.3 2.052-.9 2.916-.6.864-1.452 1.548-2.556 2.052-1.08.48-2.328.72-3.744.72zm29.559-20.376c1.704 0 3.192.372 4.464 1.116 1.296.744 2.256 1.68 2.88 2.808v-3.6h3.312v20.16c0 1.8-.384 3.396-1.152 4.788-.768 1.416-1.872 2.52-3.312 3.312-1.416.792-3.072 1.188-4.968 1.188-2.592 0-4.752-.612-6.48-1.836-1.728-1.224-2.748-2.892-3.06-5.004h3.24c.36 1.2 1.104 2.16 2.232 2.88 1.128.744 2.484 1.116 4.068 1.116 1.8 0 3.264-.564 4.392-1.692 1.152-1.128 1.728-2.712 1.728-4.752v-4.14c-.648 1.152-1.608 2.112-2.88 2.88-1.272.768-2.76 1.152-4.464 1.152-1.752 0-3.348-.432-4.788-1.296-1.416-.864-2.532-2.076-3.348-3.636-.816-1.56-1.224-3.336-1.224-5.328 0-2.016.408-3.78 1.224-5.292.816-1.536 1.932-2.724 3.348-3.564 1.44-.84 3.036-1.26 4.788-1.26zm7.344 10.152c0-1.488-.3-2.784-.9-3.888-.6-1.104-1.416-1.944-2.448-2.52-1.008-.6-2.124-.9-3.348-.9-1.224 0-2.34.288-3.348.864-1.008.576-1.812 1.416-2.412 2.52-.6 1.104-.9 2.4-.9 3.888 0 1.512.3 2.832.9 3.96.6 1.104 1.404 1.956 2.412 2.556 1.008.576 2.124.864 3.348.864 1.224 0 2.34-.288 3.348-.864 1.032-.6 1.848-1.452 2.448-2.556.6-1.128.9-2.436.9-3.924zm12.124-6.624c.576-1.128 1.392-2.004 2.448-2.628 1.08-.624 2.388-.936 3.924-.936v3.384h-.864c-3.672 0-5.508 1.992-5.508 5.976V253h-3.276v-19.728h3.276v3.204zm18.757 16.848c-1.848 0-3.528-.42-5.04-1.26-1.488-.84-2.664-2.028-3.528-3.564-.84-1.56-1.26-3.36-1.26-5.4 0-2.016.432-3.792 1.296-5.328.888-1.56 2.088-2.748 3.6-3.564 1.512-.84 3.204-1.26 5.076-1.26 1.872 0 3.564.42 5.076 1.26 1.512.816 2.7 1.992 3.564 3.528.888 1.536 1.332 3.324 1.332 5.364s-.456 3.84-1.368 5.4a9.268 9.268 0 01-3.636 3.564c-1.536.84-3.24 1.26-5.112 1.26zm0-2.88c1.176 0 2.28-.276 3.312-.828 1.032-.552 1.86-1.38 2.484-2.484.648-1.104.972-2.448.972-4.032s-.312-2.928-.936-4.032c-.624-1.104-1.44-1.92-2.448-2.448a6.711 6.711 0 00-3.276-.828c-1.2 0-2.304.276-3.312.828-.984.528-1.776 1.344-2.376 2.448-.6 1.104-.9 2.448-.9 4.032 0 1.608.288 2.964.864 4.068.6 1.104 1.392 1.932 2.376 2.484.984.528 2.064.792 3.24.792zm31.92-17.172V253h-3.276v-2.916c-.624 1.008-1.5 1.8-2.628 2.376-1.104.552-2.328.828-3.672.828-1.536 0-2.916-.312-4.14-.936-1.224-.648-2.196-1.608-2.916-2.88-.696-1.272-1.044-2.82-1.044-4.644v-11.556h3.24v11.124c0 1.944.492 3.444 1.476 4.5.984 1.032 2.328 1.548 4.032 1.548 1.752 0 3.132-.54 4.14-1.62 1.008-1.08 1.512-2.652 1.512-4.716v-10.836h3.276zm8.807 3.636c.648-1.128 1.608-2.064 2.88-2.808 1.296-.768 2.796-1.152 4.5-1.152 1.752 0 3.336.42 4.752 1.26 1.44.84 2.568 2.028 3.384 3.564.816 1.512 1.224 3.276 1.224 5.292 0 1.992-.408 3.768-1.224 5.328-.816 1.56-1.944 2.772-3.384 3.636-1.416.864-3 1.296-4.752 1.296-1.68 0-3.168-.372-4.464-1.116-1.272-.768-2.244-1.716-2.916-2.844v12.996h-3.276v-29.088h3.276v3.636zm13.392 6.156c0-1.488-.3-2.784-.9-3.888-.6-1.104-1.416-1.944-2.448-2.52-1.008-.576-2.124-.864-3.348-.864-1.2 0-2.316.3-3.348.9-1.008.576-1.824 1.428-2.448 2.556-.6 1.104-.9 2.388-.9 3.852 0 1.488.3 2.796.9 3.924.624 1.104 1.44 1.956 2.448 2.556a6.758 6.758 0 003.348.864c1.224 0 2.34-.288 3.348-.864 1.032-.6 1.848-1.452 2.448-2.556.6-1.128.9-2.448.9-3.96z" fill="#fff"/><path d="M119.932 87.704l-20.43-35.039 1.367-.75 19.75 35.18-.687.61z" fill="url(#paint1_linear)"/><path d="M130.486 92.564l.328-.844 37.368-5.485.218 1.547-37.914 4.782z" fill="url(#paint2_linear)"/><path d="M124.041 85.524l-.781-.015 1.265-48.524.782.016-1.266 48.523z" fill="url(#paint3_linear)"/><path d="M131.684 89.478l-.368-.696 51.571-26.758.359.696-51.562 26.758z" fill="url(#paint4_linear)"/><path d="M107.301 51.324l.726-.286 14.037 35.69-.727.285-14.036-35.69zM117.107 55.826l.772-.127 4.988 30.137-.771.128-4.989-30.138zM131.08 89.503l28.789-9.183.238.744-28.789 9.183-.238-.744zM130.824 90.38l36.888-7.688.16.766-36.888 7.687-.16-.765z" fill="#B0BEC5"/><path d="M130.174 92.298c-.289 2.055-.797 4.047-1.367 6.016-.594 1.968-1.235 3.914-2.118 5.796.282-2.054.797-4.047 1.368-6.015.593-1.969 1.242-3.914 2.117-5.797zM119.941 87.47c-.32 1.695-.867 3.312-1.468 4.906-.625 1.586-1.297 3.148-2.196 4.625.321-1.695.868-3.313 1.469-4.906.617-1.586 1.297-3.149 2.195-4.625z" fill="#78909C"/><path d="M127.477 102.532l.055.071a.874.874 0 01-.094 1.226l-.07.055a.877.877 0 01-1.227-.094l-.054-.07a.876.876 0 01.093-1.227l.071-.055a.868.868 0 011.226.094zM117.688 94.767l.055.07a.875.875 0 01-.094 1.227l-.07.054a.876.876 0 01-1.227-.094l-.054-.07a.875.875 0 01.093-1.226l.071-.055a.867.867 0 011.226.094z" fill="#2B2D2D"/><path d="M123.533 108.885a.476.476 0 00.024-.056s-.024.064-.024.056z" fill="url(#paint5_linear)"/><path d="M123.557 108.829s-.008.024-.024.056c.008 0 .024-.056.024-.056z" fill="#EDA600"/><path d="M122.877 99.728a2.398 2.398 0 100-4.796 2.398 2.398 0 000 4.796z" fill="url(#paint6_linear)"/><path opacity=".22" d="M122.878 95.321c.531 0 1.031.203 1.406.578.79.774.797 2.047.016 2.836a1.997 1.997 0 01-1.43.594 1.973 1.973 0 01-1.406-.578 2.001 2.001 0 01-.015-2.836 2.04 2.04 0 011.429-.594zm0-.39a2.397 2.397 0 00-2.345 2.876c.095.465.327.892.666 1.225a2.394 2.394 0 103.367-3.406 2.404 2.404 0 00-1.688-.695z" fill="#212121"/><path d="M126.282 102.931c-.625.015-1.922.476-1.922.476s-.133-.429-.18-1.179c-.078-1.203-.179-2.274-.945-2.992-.391-.368-1.5-.954-2.438-1.204a3.337 3.337 0 00-.273-.054c-1.305-.492-4.039-.07-4.039-.07l.836-1.813c-.133-.43-.836-.781-1.133-.453-.305.336-.758 1.328-1.219 2.367-.437 1 .047 1.562.625 1.781.578.227 1.586.227 1.586.227-.648.976-1.429 2.679-1.445 2.711 0 0-.375.703-.406.765-.016.032-1.891 3.063-1.891 3.063s-1.703.976-2.945 2.07c-.672.594.929.805.929.805s1.594-.258 3.063-.781c1-.352 2.172-2.188 2.398-2.211a.587.587 0 01.36.062l-1.071 2.125s-.968.836-2.273 2.063c-.531.5 1.023 1.046 1.023 1.046s1.633-.257 2.75-1.351c.883-.867 3.211-4.984 3.211-4.984l.414-.633.93-1.399s.422.696.82 1.305c.36.562.946.609 1.219.516a21.315 21.315 0 002.43-1.079c.344-.187.211-1.203-.414-1.179z" fill="url(#paint7_linear)"/><path opacity=".22" d="M116.503 95.907c.117 0 .289.094.382.203l-.757 1.633-.305.664.719-.11c.007 0 1.078-.163 2.171-.163.727 0 1.305.07 1.672.21l.063.016c.078.016.164.032.25.055.922.234 1.961.813 2.273 1.11.641.601.75 1.507.828 2.734.055.789.188 1.25.196 1.265l.117.391.383-.133c.343-.125 1.336-.437 1.804-.453.024 0 .079 0 .133.094a.516.516 0 01.055.367c-.383.203-1.438.711-2.344 1.031-.008 0-.055.016-.125.016-.117 0-.414-.039-.633-.375-.39-.602-.812-1.289-.812-1.289l-.32-.524-.336.508-.93 1.399c-.25.367-.367.554-.43.656h-.008c-.64 1.133-2.445 4.219-3.14 4.898-.867.844-2.094 1.157-2.446 1.227-.304-.117-.609-.289-.734-.406 1.258-1.18 2.203-1.993 2.211-2l.063-.047.031-.071 1.07-2.125.156-.312-.297-.188a.908.908 0 00-.5-.132.49.49 0 00-.101.007c-.242.024-.399.204-.813.696-.421.5-1.14 1.344-1.687 1.531-1.266.453-2.649.703-2.938.75a2.633 2.633 0 01-.609-.164c1.188-1.039 2.805-1.969 2.82-1.977l.086-.046.055-.086c1.883-3.047 1.898-3.079 1.906-3.094.039-.078.391-.735.399-.742 0-.008.015-.039.047-.094.531-1.125 1.023-2.047 1.382-2.594l.407-.601h-.727c-.258 0-1.023-.04-1.445-.203-.172-.07-.399-.196-.5-.43-.086-.219-.063-.492.086-.828.273-.625.851-1.93 1.148-2.258-.008-.016 0-.016.024-.016zm0-.39a.415.415 0 00-.321.132c-.304.336-.758 1.329-1.219 2.368-.437 1 .047 1.562.625 1.78.579.227 1.586.227 1.586.227-.648.977-1.429 2.68-1.445 2.711 0 0-.375.703-.406.766-.016.031-1.891 3.062-1.891 3.062s-1.703.977-2.945 2.071c-.672.594.93.804.93.804s1.593-.257 3.062-.781c1-.351 2.172-2.187 2.399-2.211h.07c.187 0 .289.071.289.071l-1.07 2.125s-.969.836-2.274 2.062c-.531.5 1.024 1.047 1.024 1.047s1.632-.258 2.75-1.352c.882-.867 3.211-4.984 3.211-4.984s.218-.336.414-.633l.929-1.398s.422.695.821 1.304c.273.422.671.555.961.555a.794.794 0 00.257-.039 21.352 21.352 0 002.43-1.078c.344-.188.211-1.18-.398-1.18h-.016c-.625.016-1.922.477-1.922.477s-.133-.43-.18-1.18c-.078-1.203-.179-2.273-.945-2.992-.391-.367-1.5-.953-2.437-1.203a3.36 3.36 0 00-.274-.055c-.476-.18-1.148-.234-1.805-.234-1.132 0-2.234.172-2.234.172l.836-1.813c-.094-.328-.484-.601-.812-.601z" fill="#212121"/><path d="M109.902 110.095c.024.648.141.929.508 1 .469.086.976-1.11.976-1.11.227-.375.461-.429.461-.429l1.883-.539c.094-1.586-.969-1.969-1.258-2.024 0 0-1.523 1.078-1.867 1.305a1.224 1.224 0 00-.445.484c-.055.11-.281.571-.258 1.313zM112.831 112.509c-.086.64.055.914.43.969.468.062 1.164-1.102 1.164-1.102.203-.383.437-.445.437-.445l1.883-.758c.024-1.586-1.164-1.914-1.461-1.953 0 0-1.383 1.273-1.719 1.515-.273.196-.367.383-.429.5-.047.094-.211.571-.305 1.274z" fill="#424242"/><path d="M123.236 99.845l-.203-.29 8.172-9.671-1.5 3.258-6.469 6.703zM120.197 98.267l2.844-12.375 1.086.453-3.719 12.515-.211-.593z" fill="#4E342E"/><path opacity=".47" d="M123.557 108.829s-.008.024-.024.056c.008 0 .024-.056.024-.056z" fill="#2B2D2D"/><path d="M119.402 98.821l.289-11.5 1.758.313-1.258 11.297-.789-.11zM123.439 99.728l-.375-.54 6.024-7.476 1.391.523-7.04 7.493z" fill="#795548"/><path d="M120.066 87.821l.946.25-1.157 10.414-.054-.007.265-10.657zm-.375-.5l-.289 11.5.797.11 1.242-11.149-1.75-.46zM129.182 91.876l.867.742-6.07 6.024 5.203-6.766zm-.055-.563l-6.055 7.883.375.54 7.188-7.133-1.508-1.29z" fill="#4E342E"/><path d="M116.892 106.438c-.414-.273-.844-.57-1.148-1.007a2.43 2.43 0 01-.469-1.539c.031-1.071.672-2.141 1.648-2.516a4.827 4.827 0 00-.742 1.227c-.18.421-.289.867-.336 1.312-.031.438.055.875.258 1.289.187.438.5.813.789 1.234z" fill="#000"/><path d="M120.275 103.431c.641-.914 2.047-3.445 2.672-3.586.734-.172.914.469.992.93.039.218.102.437.102.437.133-.055.32-.68.359-1.219.063-.836-.25-1.297-.844-1.648-.593-.352-3.203-1.547-3.203-1.547-.789-.461-1.719.352-2.047.883l-2.547 3.906a1.133 1.133 0 00.352 1.555s1.469.992 2.281 1.429c.922.477 1.242-.226 1.883-1.14z" fill="url(#paint8_linear)"/><path d="M118.385 97.86c.476-.562.898-1.18 1.695-.796.789.375 2.063 1.039 2.992 1.523.735.383 1.242.687 1.321 1.562.101-1.195-.383-1.554-.829-1.82-.593-.351-3.203-1.547-3.203-1.547-.109-.062-.218-.086-.32-.117-.711-.203-1.437.547-1.727 1l-2.546 3.906a.278.278 0 00-.032.071c.477-.375 2.649-3.782 2.649-3.782z" fill="#757575"/><path d="M117.245 106.501c-.133-.469-.133-1 .117-1.492a1.54 1.54 0 01.57-.617c.242-.172.524-.235.789-.289h.039c.305-.024.625.015.946.14.312.133.625.399.757.735.141.328.133.672.055.968-.078.289-.211.586-.469.75.071-.273.039-.546.008-.789-.039-.242-.109-.461-.219-.617-.203-.305-.593-.43-1.086-.476h.04c-.399.031-.758.148-1.024.461-.258.312-.43.757-.523 1.226z" fill="#000"/><path d="M116.11 103.126s1.484.969 2.305 1.406c.922.493 1.312.329 1.945-.585.641-.915 2.18-3.75 2.805-3.93.812-.234.797.851.797.851s.406-.601-.125-1.453c-.149-.242-.969-.617-1.727.32-.461.571-2.125 3.157-2.766 4.141a.462.462 0 01-.632.141l-3.125-1.914c-.032.398 0 .695.523 1.023z" fill="#000"/><path opacity=".24" d="M123.539 108.868s-.006.007-.006.015c.006-.008.006-.015.006-.015z" fill="#000"/><path d="M121.768 103.962s-.368-1.414-.922-1.938l.718-.843c.54.601.852 1.781.829 2.226-.024.321-.625.555-.625.555zM111.022 109.908c.117-.654-.025-1.227-.318-1.279-.293-.053-.626.435-.743 1.089-.118.654.025 1.226.318 1.279.293.053.625-.435.743-1.089zM114.008 112.31c.149-.647.007-1.233-.317-1.307-.324-.074-.707.391-.855 1.038-.149.648-.007 1.233.317 1.307.324.075.707-.39.855-1.038z" fill="#000"/><path d="M120.104 87.228l5.031 1.601c.515.031 1.476.781 1.875 1.117l3.406 2.602 2.617-4.117-6.242-.11c-.539-.07-.562-.273-1.016-.562l-2.164-2.93-3.507 2.399z" fill="#F4C20D"/><path d="M123.564 85.087l1.891 2.445c.469.61 1.18.953 1.922.961l5.023.29-1.914 3.476-4.164-3.078a3.28 3.28 0 00-1.437-.664l-4.313-1.328 2.992-2.102zm.079-.54l-3.954 2.774 5.094 1.57c.469.087.914.29 1.289.594l4.539 3.352 2.43-4.414-5.641-.328c-.64 0-1.242-.305-1.632-.813l-2.125-2.734z" fill="#795548"/><path d="M130.407 60.868c17.773 7.563 35.023 27.094 35.023 27.094s4.555.664 8.195-1.351c4.375-2.422 12.93-12.594 14.93-14.274 3.586-3.023 2.141-9.883-.156-12.523-1.922-2.219-13.156-12.867-34.25-19.992-17.602-5.946-27.484-5.016-32.641-4.266-4.718.688-6.664 1.023-13.242 4.14-12.633 5.985-8.672 13.743-8.672 13.743s9.922-1.461 30.813 7.43z" fill="url(#paint9_linear)"/><path d="M146.22 37.446c-6-1.547-10.867-2.195-14.797-2.383-.367.118-.742.25-1.133.383-11.953 4.086-19.375 9.453-21.797 12.367-.992 1.196-1.992 4.836-1.789 5.946 3.664.508 8.758 1.601 15.344 3.883l6.242-2.336 18.93-15.563-1-2.297z" fill="url(#paint10_linear)"/><path d="M154.152 39.813c-3.562-1.203-6.804-2.125-9.757-2.82-2.18.656-5.524 1.813-9.625 3.758-7.43 3.516-14.204 8.047-15.407 10.281-1.195 2.235-1.578 5.219-1.578 5.219 3.641 1.094 7.844 2.578 12.617 4.61.555.234 1.118.484 1.672.75l10.188-10.9 14.047-10.148c-.704-.25-1.422-.5-2.157-.75z" fill="url(#paint11_linear)"/><path d="M159.182 81.517s1.711-2.61 3.679-4.993c4.203-5.085 22.758-19.414 22.758-19.414-4.328-3.78-7.32-5.922-13.789-9.515l-21.875 12.164-6.203 6.656.039 2.18c5.078 3.601 11.742 9.515 15.391 12.922z" fill="url(#paint12_linear)"/><path d="M161.533 42.602L139.416 54.04l-5.344 8.555c5.344 2.75 10.93 6.781 15.5 10.453 0 0 .774-3.266 3.321-6.047 2.843-3.11 14.109-13.86 22.328-17.43-3.766-2.304-8.321-4.718-13.688-6.968z" fill="url(#paint13_linear)"/><path d="M154.83 40.048c-3.055.812-9.164 2.672-13.953 5.57-6.664 4.024-11.43 7.43-12.578 9.68-1.149 2.25-1.453 4.11-1.453 4.11l.008.007c1.148.453 2.328.938 3.554 1.453 3.055 1.297 6.086 2.961 9.031 4.805 0 0 1.43-2.961 3.375-5.274 2.68-3.18 13.883-13.125 22.625-16.062a107.969 107.969 0 00-10.609-4.29z" fill="url(#paint14_linear)"/><path d="M149.441 47.587c-14.609-7.805-27.344-9.938-35.383-10.367-2.023.71-3.984 1.593-5.922 2.523-3.187 1.531-6.484 3.664-8.164 6.906-.86 1.664-1.195 3.578-.82 5.422.063.305.14 1.016.383 1.25.203.203.594.055.922.04 4.047-.188 8.172.57 12.093 1.484 4.602 1.07 9.11 2.554 13.516 4.258 4.461 1.718 8.758 3.71 12.813 6.25 4.343 2.718 8.453 5.804 12.367 9.117 3.617 3.054 7.156 6.203 10.484 9.578a119.293 119.293 0 013.242 3.406c.492.54.578.531 1.344.578 3.461.196 6.656-.695 9.359-2.867 2.61-2.094 4.946-4.547 7.243-6.977.586-.617 1.156-1.242 1.734-1.874-5.859-6.915-18.008-19.54-35.211-28.727z" fill="url(#paint15_radial)"/><path opacity=".8" d="M149.439 43.83c14.188 6.554 24.274 12.327 31.54 18.194 5.023 4.055 4.632 12.665 4.632 12.665 5.649-3.868 5.508-7.805 4.688-10.946-.367-1.398-.945-2.836-1.906-3.937-2.43-2.805-5.586-5.203-8.61-7.336-3.57-2.516-7.422-4.688-11.312-6.657-8.008-4.062-16.594-7.171-25.367-9.109-4.563-1.008-9.219-1.664-13.891-1.703-3.641-.023-7.274.383-10.852 1.047-3.601.672-10.492 3.836-10.617 3.898 0 0 6.055-2.008 11.641-1.578 11.929.906 21.125 1.336 30.054 5.461z" fill="url(#paint16_radial)"/><path opacity=".2" d="M128.892 35.782h.321c4.25.032 8.742.578 13.726 1.68 8.633 1.906 17.109 4.953 25.18 9.047 4.414 2.234 8.078 4.398 11.219 6.601 2.812 1.977 6.023 4.383 8.468 7.203.75.868 1.336 2.086 1.742 3.625.508 1.938.954 5.547-1.726 8-1.336 1.227-2.57 2.579-3.766 3.891a124.81 124.81 0 01-1.687 1.828c-2.258 2.375-4.586 4.836-7.164 6.907-2.25 1.804-4.93 2.718-7.953 2.718-.289 0-.579-.008-.899-.023-.515-.031-.515-.031-.781-.32a129.637 129.637 0 00-3.266-3.43c-2.89-2.93-6.242-5.992-10.539-9.625-4.156-3.516-8.351-6.61-12.453-9.18-3.719-2.328-7.953-4.398-12.953-6.32-4.922-1.899-9.383-3.297-13.617-4.29-3.266-.757-7.117-1.538-11.039-1.538-.43 0-.86.008-1.282.03a6.054 6.054 0 00-.351.04h-.016c-.039-.164-.078-.375-.101-.484-.016-.086-.031-.157-.04-.22-.328-1.6-.062-3.343.751-4.905 1.297-2.516 3.851-4.657 7.804-6.563 3.118-1.5 6.493-2.977 10.039-3.64 3.743-.696 7.133-1.032 10.383-1.032zm0-.781c-3.531 0-7.054.398-10.515 1.047-3.602.672-6.954 2.125-10.235 3.703-3.187 1.531-6.484 3.664-8.164 6.906-.86 1.664-1.195 3.578-.82 5.422.062.305.14 1.016.383 1.25.086.078.195.102.32.102.187 0 .406-.055.594-.063.422-.016.836-.031 1.25-.031 3.648 0 7.328.695 10.851 1.515 4.602 1.07 9.11 2.555 13.516 4.258 4.461 1.72 8.758 3.711 12.812 6.25 4.344 2.72 8.454 5.805 12.368 9.118 3.617 3.054 7.156 6.203 10.484 9.578a120.98 120.98 0 013.242 3.406c.492.539.578.531 1.344.578.305.016.617.023.922.023 3.109 0 5.976-.914 8.445-2.89 2.609-2.094 4.945-4.547 7.242-6.977 1.789-1.89 3.492-3.922 5.414-5.68 2.493-2.273 2.782-5.624 1.961-8.773-.367-1.398-.945-2.836-1.906-3.937-2.43-2.805-5.586-5.203-8.609-7.336-3.571-2.516-7.422-4.688-11.313-6.657-8.008-4.062-16.594-7.171-25.367-9.109-4.563-1.008-9.219-1.664-13.891-1.703h-.328z" fill="#212121"/><defs><linearGradient id="paint0_linear" x1="-29" y1="0" x2="282.12" y2="23.79" gradientUnits="userSpaceOnUse"><stop stop-color="#6D58C6"/><stop offset="1" stop-color="#F977A1"/></linearGradient><linearGradient id="paint1_linear" x1="105.872" y1="62.249" x2="119.689" y2="87.41" gradientUnits="userSpaceOnUse"><stop stop-color="#78909C"/><stop offset="1" stop-color="#B0BEC5"/></linearGradient><linearGradient id="paint2_linear" x1="170.257" y1="86.68" x2="133.256" y2="92.185" gradientUnits="userSpaceOnUse"><stop stop-color="#78909C"/><stop offset="1" stop-color="#B0BEC5"/></linearGradient><linearGradient id="paint3_linear" x1="124.193" y1="64.168" x2="123.971" y2="71.563" gradientUnits="userSpaceOnUse"><stop stop-color="#546E7A"/><stop offset="1" stop-color="#90A4AE"/></linearGradient><linearGradient id="paint4_linear" x1="151.392" y1="78.814" x2="141.894" y2="83.747" gradientUnits="userSpaceOnUse"><stop stop-color="#546E7A"/><stop offset="1" stop-color="#90A4AE"/></linearGradient><linearGradient id="paint5_linear" x1="123.49" y1="108.853" x2="123.49" y2="108.853" gradientUnits="userSpaceOnUse"><stop stop-color="#FFB300"/><stop offset=".401" stop-color="#FFCA28"/></linearGradient><linearGradient id="paint6_linear" x1="121.88" y1="99.404" x2="123.472" y2="96.097" gradientUnits="userSpaceOnUse"><stop stop-color="#1A237E" stop-opacity=".971"/><stop offset="1" stop-color="#4885ED" stop-opacity=".971"/></linearGradient><linearGradient id="paint7_linear" x1="122.323" y1="99.079" x2="113.848" y2="106.775" gradientUnits="userSpaceOnUse"><stop stop-color="#A11919"/><stop offset=".496" stop-color="#DB3236"/></linearGradient><linearGradient id="paint8_linear" x1="118.915" y1="102.922" x2="124.482" y2="94.38" gradientUnits="userSpaceOnUse"><stop stop-color="#616161"/><stop offset=".398" stop-color="#2B2D2D"/><stop offset=".951"/></linearGradient><linearGradient id="paint9_linear" x1="137.681" y1="72.648" x2="146.367" y2="55.889" gradientUnits="userSpaceOnUse"><stop offset=".25" stop-color="#FFA000"/><stop offset=".357" stop-color="#FDA703"/><stop offset=".74" stop-color="#F6BB0A"/><stop offset="1" stop-color="#F4C20D"/></linearGradient><linearGradient id="paint10_linear" x1="128.115" y1="43.483" x2="113.913" y2="57.607" gradientUnits="userSpaceOnUse"><stop stop-color="#DB3236"/><stop offset="1" stop-color="#B71C1C"/></linearGradient><linearGradient id="paint11_linear" x1="140.479" y1="43.274" x2="122.594" y2="59.026" gradientUnits="userSpaceOnUse"><stop stop-color="#3CBA54"/><stop offset="1" stop-color="#388E3C"/></linearGradient><linearGradient id="paint12_linear" x1="176.138" y1="52.426" x2="151.312" y2="73.382" gradientUnits="userSpaceOnUse"><stop stop-color="#DB3236"/><stop offset="1" stop-color="#B71C1C"/></linearGradient><linearGradient id="paint13_linear" x1="161.774" y1="48.532" x2="141.577" y2="66.084" gradientUnits="userSpaceOnUse"><stop stop-color="#3CBA54"/><stop offset="1" stop-color="#388E3C"/></linearGradient><linearGradient id="paint14_linear" x1="150.61" y1="46.165" x2="132.93" y2="62.103" gradientUnits="userSpaceOnUse"><stop stop-color="#4885ED"/><stop offset="1" stop-color="#1565C0"/></linearGradient><radialGradient id="paint15_radial" cx="0" cy="0" r="1" gradientUnits="userSpaceOnUse" gradientTransform="matrix(77.35025 35.57174 -13.71907 29.83193 128.825 69.82)"><stop offset=".166" stop-color="#212121" stop-opacity=".957"/><stop offset=".553" stop-color="#212121" stop-opacity="0"/></radialGradient><radialGradient id="paint16_radial" cx="0" cy="0" r="1" gradientUnits="userSpaceOnUse" gradientTransform="rotate(17.77 -114.215 478.695) scale(77.8923 23.6551)"><stop offset=".657" stop-color="#FFECB4" stop-opacity=".034"/><stop offset="1" stop-color="#FFF9C4"/></radialGradient></defs></svg>