<svg width="217" height="233" fill="none" xmlns="http://www.w3.org/2000/svg"><g filter="url(#filter0_d)"><circle cx="114" cy="126" r="90" fill="#000"/></g><path d="M58.877 132.448h11.711V136h-16.08v-33.456h4.368v29.904zm27.822 3.984c-2.464 0-4.704-.56-6.72-1.68-1.984-1.12-3.552-2.704-4.704-4.752-1.12-2.08-1.68-4.48-1.68-7.2 0-2.688.576-5.056 1.728-7.104 1.184-2.08 2.784-3.664 4.8-4.752 2.016-1.12 4.272-1.68 6.768-1.68 2.496 0 4.752.56 6.768 1.68 2.016 1.088 3.6 2.656 4.752 4.704 1.184 2.048 1.776 4.432 1.776 7.152 0 2.72-.608 5.12-1.824 7.2-1.184 2.048-2.8 3.632-4.848 4.752-2.048 1.12-4.32 1.68-6.816 1.68zm0-3.84c1.568 0 3.04-.368 4.416-1.104 1.376-.736 2.48-1.84 3.312-3.312.864-1.472 1.296-3.264 1.296-5.376 0-2.112-.416-3.904-1.248-5.376-.832-1.472-1.92-2.56-3.264-3.264a8.949 8.949 0 00-4.368-1.104c-1.6 0-3.072.368-4.416 1.104-1.312.704-2.368 1.792-3.168 3.264-.8 1.472-1.2 3.264-1.2 5.376 0 2.144.384 3.952 1.152 5.424.8 1.472 1.856 2.576 3.168 3.312 1.312.704 2.752 1.056 4.32 1.056zm30.079-23.328c2.272 0 4.256.496 5.952 1.488 1.728.992 3.008 2.24 3.84 3.744v-4.8h4.416v26.88c0 2.4-.512 4.528-1.536 6.384-1.024 1.888-2.496 3.36-4.416 4.416-1.888 1.056-4.096 1.584-6.624 1.584-3.456 0-6.336-.816-8.64-2.448-2.304-1.632-3.664-3.856-4.08-6.672h4.32c.48 1.6 1.472 2.88 2.976 3.84 1.504.992 3.312 1.488 5.424 1.488 2.4 0 4.352-.752 5.856-2.256 1.536-1.504 2.304-3.616 2.304-6.336v-5.52c-.864 1.536-2.144 2.816-3.84 3.84-1.696 1.024-3.68 1.536-5.952 1.536-2.336 0-4.464-.576-6.384-1.728-1.888-1.152-3.376-2.768-4.464-4.848-1.088-2.08-1.632-4.448-1.632-7.104 0-2.688.544-5.04 1.632-7.056 1.088-2.048 2.576-3.632 4.464-4.752 1.92-1.12 4.048-1.68 6.384-1.68zm9.792 13.536c0-1.984-.4-3.712-1.2-5.184-.8-1.472-1.888-2.592-3.264-3.36-1.344-.8-2.832-1.2-4.464-1.2-1.632 0-3.12.384-4.464 1.152-1.344.768-2.416 1.888-3.216 3.36-.8 1.472-1.2 3.2-1.2 5.184 0 2.016.4 3.776 1.2 5.28.8 1.472 1.872 2.608 3.216 3.408 1.344.768 2.832 1.152 4.464 1.152 1.632 0 3.12-.384 4.464-1.152 1.376-.8 2.464-1.936 3.264-3.408.8-1.504 1.2-3.248 1.2-5.232zm14.054-17.376c-.832 0-1.536-.288-2.112-.864-.576-.576-.864-1.28-.864-2.112 0-.832.288-1.536.864-2.112.576-.576 1.28-.864 2.112-.864.8 0 1.472.288 2.016.864.576.576.864 1.28.864 2.112 0 .832-.288 1.536-.864 2.112a2.662 2.662 0 01-2.016.864zm2.112 4.272V136h-4.368v-26.304h4.368zm20.26-.48c3.2 0 5.792.976 7.776 2.928 1.984 1.92 2.976 4.704 2.976 8.352V136h-4.32v-14.88c0-2.624-.656-4.624-1.968-6-1.312-1.408-3.104-2.112-5.376-2.112-2.304 0-4.144.72-5.52 2.16-1.344 1.44-2.016 3.536-2.016 6.288V136h-4.368v-26.304h4.368v3.744c.864-1.344 2.032-2.384 3.504-3.12 1.504-.736 3.152-1.104 4.944-1.104z" fill="#fff"/><g filter="url(#filter1_d)"><circle cx="53" cy="49" r="40" fill="url(#paint0_linear)"/></g><path d="M67.086 44.778h-4.372V39.71C62.714 33.595 59.472 30 53 30c-6.475 0-9.714 3.595-9.714 9.711v5.067h-4.857c-1.343 0-2.429 1.364-2.429 2.531v16.469c0 1.159 1.04 2.404 2.31 2.759l2.907.817c1.541.39 3.135.608 4.74.646h14.086a21.248 21.248 0 004.738-.648l2.905-.817C68.958 66.182 70 64.937 70 63.778V47.309c0-1.167-1.574-2.531-2.914-2.531zm-9.229 0h-9.714v-5.913c0-3.051 1.935-4.643 4.857-4.643s4.857 1.592 4.857 4.643v5.913z" fill="#fff"/><defs><filter id="filter0_d" x="11.5" y="27.5" width="205" height="205" filterUnits="userSpaceOnUse" color-interpolation-filters="sRGB"><feFlood flood-opacity="0" result="BackgroundImageFix"/><feColorMatrix in="SourceAlpha" values="0 0 0 0 0 0 0 0 0 0 0 0 0 0 0 0 0 0 127 0"/><feOffset dy="4"/><feGaussianBlur stdDeviation="6.25"/><feColorMatrix values="0 0 0 0 0 0 0 0 0 0 0 0 0 0 0 0 0 0 0.5 0"/><feBlend in2="BackgroundImageFix" result="effect1_dropShadow"/><feBlend in="SourceGraphic" in2="effect1_dropShadow" result="shape"/></filter><filter id="filter1_d" x=".5" y=".5" width="105" height="105" filterUnits="userSpaceOnUse" color-interpolation-filters="sRGB"><feFlood flood-opacity="0" result="BackgroundImageFix"/><feColorMatrix in="SourceAlpha" values="0 0 0 0 0 0 0 0 0 0 0 0 0 0 0 0 0 0 127 0"/><feOffset dy="4"/><feGaussianBlur stdDeviation="6.25"/><feColorMatrix values="0 0 0 0 0 0 0 0 0 0 0 0 0 0 0 0 0 0 0.5 0"/><feBlend in2="BackgroundImageFix" result="effect1_dropShadow"/><feBlend in="SourceGraphic" in2="effect1_dropShadow" result="shape"/></filter><linearGradient id="paint0_linear" x1="5" y1="9" x2="90.791" y2="15.786" gradientUnits="userSpaceOnUse"><stop stop-color="#6D58C6"/><stop offset="1" stop-color="#F977A1"/></linearGradient></defs></svg>